<svg width="35" height="35" viewBox="0 0 35 35" fill="none" xmlns="http://www.w3.org/2000/svg">
<g clip-path="url(#clip0_146_11)">
<path d="M20.3028 10.3877C19.9248 10.3877 19.6182 10.694 19.6182 11.0713C19.6182 11.4483 19.9248 11.7546 20.3028 11.7546C20.6809 11.7546 20.9875 11.4483 20.9875 11.0713C20.9875 10.694 20.6809 10.3877 20.3028 10.3877Z" fill="#A49777"/>
<path d="M16.15 23.7388C16.4173 23.4715 16.4173 23.0389 16.15 22.7716C15.8825 22.5052 15.449 22.5052 15.1812 22.7716C14.9142 23.0389 14.9142 23.4715 15.1812 23.7388C15.449 24.0053 15.8825 24.0053 16.15 23.7388Z" fill="#A49777"/>
<path d="M7.92126 34.7978C8.18667 35.0648 8.61876 35.0677 8.88765 34.8034L12.2074 31.5392C12.7714 30.9763 12.9429 30.1429 12.6949 29.4185L13.409 28.7311C13.7935 28.3605 14.2997 28.1562 14.8348 28.1562H23.9377C25.5526 28.1562 27.079 27.5373 28.2362 26.4133C28.2838 26.3671 27.8747 26.8481 34.4463 19.0092C35.421 17.8583 35.2752 16.13 34.121 15.1562C32.974 14.1914 31.2557 14.33 30.2784 15.4611L26.2378 19.606C25.7276 18.9792 24.9496 18.5886 24.1089 18.5886H16.4733C15.3867 18.1349 14.2339 17.9053 13.0443 17.9053C9.7481 17.9053 6.86844 19.4241 5.3228 22.2749C4.67185 22.1518 3.98531 22.3483 3.49141 22.8413L0.233974 26.102C-0.0319719 26.3682 -0.032507 26.7989 0.232904 27.0657L7.92126 34.7978ZM13.0441 19.2719C14.0929 19.2719 15.1069 19.4826 16.0586 19.8981C16.1453 19.936 16.2386 19.9555 16.3331 19.9555H24.1089C24.8514 19.9555 25.4785 20.5598 25.4785 21.3222C25.4785 22.076 24.8642 22.6891 24.1089 22.6891H18.5222C18.1441 22.6891 17.8375 22.9951 17.8375 23.3724C17.8375 23.75 18.1441 24.0557 18.5222 24.0557H24.1089C25.6192 24.0557 26.8478 22.8295 26.8478 21.3222C26.8478 21.202 26.8393 21.0829 26.8238 20.9649C30.7324 16.9549 31.2836 16.3915 31.3071 16.3634C31.7951 15.7885 32.6615 15.7156 33.2378 16.2005C33.8146 16.6873 33.8876 17.5514 33.3983 18.1296L27.2567 25.4574C26.3598 26.3167 25.1823 26.7896 23.9377 26.7896H14.8348C13.9428 26.7896 13.0984 27.13 12.4579 27.7477L11.8759 28.3082L6.51153 22.9545C7.76528 20.6071 10.1179 19.2719 13.0441 19.2719ZM4.46048 23.8071C4.6863 23.5818 5.03304 23.5412 5.30835 23.711C5.41297 23.7746 11.2697 29.6342 11.3058 29.6826C11.5062 29.952 11.4776 30.3347 11.2429 30.5691L8.41275 33.3518L1.68464 26.5856L4.46048 23.8071Z" fill="#A49777"/>
<path d="M10.7164 14.4882H27.1502C28.283 14.4882 29.2044 13.5685 29.2044 12.4379C29.2044 10.7153 29.2044 3.289 29.2044 2.05025C29.2044 0.919648 28.283 0 27.1502 0H10.7164C9.58356 0 8.66211 0.919648 8.66211 2.05025V12.4379C8.66211 13.5685 9.58356 14.4882 10.7164 14.4882ZM27.8348 5.46715H10.0317V4.1005H27.8348V5.46715ZM27.1502 13.1215H10.7164C10.3389 13.1215 10.0317 12.8147 10.0317 12.4379V6.83407H27.8348V12.4379C27.8348 12.8147 27.5277 13.1215 27.1502 13.1215ZM10.7164 1.36692H27.1502C27.5277 1.36692 27.8348 1.67347 27.8348 2.05025V2.73357H10.0317V2.05025C10.0317 1.67347 10.3389 1.36692 10.7164 1.36692Z" fill="#A49777"/>
<path d="M25.7805 10.3877H23.0416C22.6635 10.3877 22.3569 10.6937 22.3569 11.0713C22.3569 11.4486 22.6635 11.7546 23.0416 11.7546H25.7805C26.1588 11.7546 26.4655 11.4486 26.4655 11.0713C26.4655 10.6937 26.1588 10.3877 25.7805 10.3877Z" fill="#A49777"/>
</g>
<defs>
<clipPath id="clip0_146_11">
<rect width="35" height="35" fill="white"/>
</clipPath>
</defs>
</svg>
