<svg width="48" height="64" viewBox="0 0 48 64" fill="none" xmlns="http://www.w3.org/2000/svg">
<path d="M23.9989 0C11.008 0 0.437988 10.5701 0.437988 23.5622C0.437988 26.9511 1.13161 30.1867 2.49855 33.1799C8.38944 46.0706 19.6839 59.6804 23.006 63.5441C23.2549 63.833 23.6177 63.9993 23.9996 63.9993C24.3814 63.9993 24.7443 63.833 24.9932 63.5441C28.3139 59.6811 39.6084 46.0719 45.5012 33.1799C46.8688 30.1867 47.5618 26.9511 47.5618 23.5622C47.5605 10.5701 36.9904 0 23.9989 0ZM23.9989 35.8005C17.2507 35.8005 11.76 30.3098 11.76 23.5616C11.76 16.8127 17.2507 11.322 23.9989 11.322C30.7472 11.322 36.2379 16.8127 36.2379 23.5616C36.2385 30.3098 30.7478 35.8005 23.9989 35.8005Z" fill="#A49777"/>
<circle cx="24.0939" cy="24.2341" r="13.7546" fill="#A49777"/>
<g clip-path="url(#clip0_408_14)">
<path d="M34.7244 23.7423C35.1232 23.3037 35.0847 22.6314 34.6384 22.2411L24.8063 13.638C24.3601 13.2477 23.6446 13.2559 23.2077 13.6564L13.3422 22.6998C12.9053 23.1003 12.8838 23.7717 13.2947 24.1988L13.542 24.4564C13.9524 24.8834 14.6157 24.9344 15.0226 24.5698L15.7599 23.9095V33.576C15.7599 34.1691 16.2404 34.6492 16.8331 34.6492H20.6787C21.2713 34.6492 21.7519 34.1691 21.7519 33.576V26.8133H26.657V33.576C26.6485 34.1687 27.0725 34.6488 27.6652 34.6488H31.7405C32.3332 34.6488 32.8137 34.1687 32.8137 33.5756V24.0456C32.8137 24.0456 33.0174 24.224 33.2686 24.4448C33.5194 24.6652 34.0462 24.4885 34.445 24.0495L34.7244 23.7423Z" fill="white"/>
</g>
<defs>
<clipPath id="clip0_408_14">
<rect width="22" height="22" fill="white" transform="translate(13 13)"/>
</clipPath>
</defs>
</svg>
