<svg width="54" height="52" viewBox="0 0 54 52" fill="none" xmlns="http://www.w3.org/2000/svg">
<path d="M52.496 20.2684L52.4958 20.2679C52.4861 20.2379 52.4605 20.2166 52.4301 20.2122L52.4299 20.2122L35.6896 17.7796L34.9092 17.6662L34.5602 16.959L27.0735 1.78983L27.0734 1.78963C27.0598 1.76193 27.0314 1.74414 27.0001 1.74414C26.9688 1.74414 26.9403 1.76186 26.9265 1.78984L25.5821 1.12631L26.9265 1.78985L19.4395 16.959L19.0905 17.6662L18.3102 17.7796L1.57023 20.2122L1.57 20.2122C1.53943 20.2167 1.51374 20.2382 1.50411 20.2679L1.50406 20.268C1.49442 20.2977 1.50245 20.3302 1.52477 20.352L1.5249 20.3521L13.6377 32.1597L14.2024 32.7101L14.0691 33.4873L11.2101 50.1601L11.21 50.1603C11.2048 50.1906 11.2171 50.2216 11.2425 50.2402C11.2567 50.2505 11.2733 50.2559 11.291 50.2559C11.3043 50.2559 11.3168 50.2529 11.3287 50.2466L11.3289 50.2465L26.302 42.3746L27 42.0076L27.698 42.3746L42.6703 50.2463L52.496 20.2684ZM52.496 20.2684C52.5055 20.2976 52.4977 20.3301 52.4753 20.3518L52.4752 20.3519L40.361 32.1596L39.7963 32.7101M52.496 20.2684L39.7963 32.7101M39.7963 32.7101L39.9296 33.4874M39.7963 32.7101L39.9296 33.4874M39.9296 33.4874L42.7896 50.1598C42.7948 50.1905 42.7822 50.2218 42.7568 50.2402C42.7317 50.2584 42.6984 50.2611 42.6704 50.2464L39.9296 33.4874Z" stroke="#D8C596" stroke-width="3"/>
</svg>
