<svg width="63" height="63" viewBox="0 0 63 63" fill="none" xmlns="http://www.w3.org/2000/svg">
<path d="M62.9874 33.9037C62.9121 32.1589 61.205 30.7656 57.9038 29.7614C55.3431 28.9957 52.0921 28.5313 48.5774 28.456V15.0627C48.5649 14.8367 48.5021 14.6234 48.3891 14.4351C48.0377 12.9162 46.3431 11.6861 43.3431 10.7823C40.5188 9.92879 36.8285 9.46436 32.9498 9.46436C29.0837 9.46436 25.431 9.92879 22.6569 10.7823C20.3849 11.4853 17.6611 12.7907 17.6611 15.0376C17.6611 15.1757 17.6736 15.3137 17.6987 15.4518L17.8368 21.1757C9.67782 19.6192 1.80753 24.979 0.263598 33.1255C0.0878661 34.0543 0 34.9832 0 35.9246C0 44.2091 6.74059 50.9497 15.0251 50.9497C18.477 50.9497 21.8159 49.7698 24.4895 47.5857C26.8368 48.138 29.5983 48.4393 32.523 48.4644C33.1632 51.9414 40.6946 53.5355 47.7113 53.5355C51.5774 53.5355 55.2301 53.0585 58.0042 52.1924C60.2762 51.4895 63 50.1715 63 47.9246V34.1422C63 34.0669 63 33.979 62.9874 33.9037ZM45.954 22.0041C45.954 22.1673 45.3515 23.0334 42.6276 23.8618C40.0795 24.6275 36.5523 25.0794 32.9623 25.0794C29.8619 25.0794 26.8243 24.7531 24.4142 24.138C24.3766 24.1254 24.3515 24.1254 24.3138 24.1129C23.1213 23.1715 21.8033 22.4183 20.3849 21.8911L20.2971 18.3514C21.1632 18.7907 22.0669 19.1422 23.0084 19.3932C25.7322 20.184 29.2594 20.6108 32.9623 20.6108C36.8285 20.6108 40.5314 20.1464 43.3556 19.2928C44.2971 19.0167 45.2134 18.6526 46.0795 18.2008V21.4895C45.9414 21.6652 45.954 21.8284 45.954 22.0041ZM23.41 13.2049C25.9456 12.4267 29.3347 11.9874 32.9498 11.9874C36.5397 11.9874 40.0669 12.4267 42.6151 13.2049C45.3389 14.0334 45.9414 14.887 45.9414 15.0501C45.9414 15.2259 45.3264 16.092 42.6025 16.9079C40.0544 17.6736 36.5397 18.1129 32.9498 18.1129C29.4854 18.1129 26.1967 17.7112 23.6987 16.9832C21 16.2049 20.2469 15.3514 20.1841 15.0752C20.1841 15.0501 20.1715 15.0501 20.1715 15.0501C20.1841 14.8116 20.7615 14.0083 23.41 13.2049ZM23.4477 45.1882C18.3389 49.8326 10.4184 49.4686 5.77406 44.3598C1.12971 39.251 1.49372 31.3305 6.60251 26.6861C8.89958 24.5899 11.9121 23.4351 15.0251 23.4351C16.2803 23.4351 17.523 23.6234 18.728 23.9874C23.0837 25.343 26.3598 28.9581 27.2887 33.4142C27.4519 34.2426 27.5397 35.0962 27.5397 35.9372C27.5523 39.4644 26.0586 42.8158 23.4477 45.1882ZM26.636 45.4644C27.6527 44.2217 28.4686 42.8284 29.046 41.3347C30.113 41.4225 31.2176 41.4853 32.3724 41.4978V41.7238L32.4477 45.979C30.5021 45.9539 28.5565 45.7782 26.636 45.4644ZM29.9874 34.4434C30.7155 34.4937 31.4812 34.5188 32.2594 34.5313L32.3347 38.9748C31.4561 38.9623 30.59 38.9246 29.7615 38.8619C29.9498 37.8953 30.0502 36.9037 30.0502 35.9246C30.0502 35.4351 30.0251 34.9455 29.9874 34.4434ZM33.0753 32.0334C33.0377 32.0334 32.9874 32.0334 32.9498 32.0334C31.7448 32.0334 30.5774 31.9832 29.4979 31.9079C29.0209 30.2259 28.2678 28.6443 27.251 27.2384C29.1339 27.4769 31.0293 27.6024 32.9372 27.6024C36.8159 27.6024 40.5188 27.138 43.3431 26.2844C44.2845 26.0083 45.1883 25.6443 46.0544 25.2049V28.4937C40.6695 28.6443 35.1339 29.774 33.0753 32.0334ZM34.7322 34.0292C34.7322 34.0167 34.7322 34.0041 34.7448 33.979C34.8577 33.6401 35.749 32.8116 38.3473 32.0836C40.7824 31.3932 43.9582 31.0167 47.2971 31.0167H47.5105C51.1004 31.0167 54.6151 31.4309 57.1757 32.2091C59.8494 33.0125 60.477 33.8409 60.4895 34.0292V34.0418C60.477 34.2301 59.8494 35.0962 57.0628 35.9246C54.4895 36.6903 51.1004 37.1045 47.523 37.1045C44.0586 37.1045 40.7699 36.7029 38.272 35.9874C35.5732 35.2091 34.8326 34.343 34.7573 34.0794C34.7322 34.0292 34.7322 34.0292 34.7322 34.0292ZM57.2761 49.8075C54.7406 50.5983 51.3389 51.0376 47.7239 51.0376C44.0962 51.0376 40.7071 50.6108 38.1967 49.8451C35.5481 49.0292 34.9958 48.1882 34.9958 47.9999C34.9958 47.9874 34.9958 47.9874 34.9958 47.9748L34.9331 44.3347C35.9372 44.8242 36.9791 45.2008 38.0586 45.4769C40.6946 46.1673 44.046 46.5564 47.4854 46.5564C51.364 46.5564 55.0418 46.092 57.8536 45.2384C58.7699 44.9623 59.6485 44.5983 60.4895 44.1715V47.9372H60.5021C60.5021 48.1129 59.9247 48.979 57.2761 49.8075ZM60.5146 40.569H60.5021C60.5021 40.6945 60.4268 40.8451 60.4268 40.9832C60.4268 41.1589 59.8368 42.0125 57.1255 42.8409C54.5523 43.6192 51.1255 44.046 47.4979 44.046C40.5439 44.046 35.8619 42.4769 34.8828 41.2593L34.8703 40.2049L34.8201 37.3179C35.6987 37.7572 36.6151 38.1087 37.5565 38.3723C40.2803 39.1631 43.8075 39.5899 47.5105 39.5899C51.3264 39.5899 54.9665 39.138 57.7657 38.3096C58.7197 38.046 59.636 37.6819 60.5146 37.2301V40.569Z" fill="#D8C596"/>
<path d="M19.5942 37.7073C19.0168 35.6613 17.1465 34.2554 15.0252 34.2554C13.7951 34.2554 12.7909 33.2638 12.7909 32.0337C12.8034 30.791 13.7951 29.7993 15.0252 29.7993C16.2553 29.7993 17.2595 30.8035 17.2595 32.0337C17.2595 32.724 17.8244 33.2889 18.5147 33.2889C19.2051 33.2889 19.77 32.724 19.77 32.0337C19.77 29.9123 18.3641 28.042 16.3181 27.4646V26.8998C16.3181 26.2094 15.7532 25.6445 15.0628 25.6445C14.3725 25.6445 13.8076 26.2094 13.8076 26.8998V27.4395C11.2846 28.1173 9.77832 30.7157 10.4561 33.2387C11.0085 35.3098 12.8787 36.7533 15.0252 36.7533C16.2553 36.7533 17.2595 37.7449 17.2595 38.9751C17.2595 40.2052 16.2679 41.2094 15.0377 41.2094C13.8076 41.2094 12.8034 40.2178 12.8034 38.9876C12.8034 38.2973 12.2386 37.7324 11.5482 37.7324C10.8578 37.7324 10.293 38.2973 10.293 38.9876C10.3055 41.1341 11.7365 43.0044 13.8076 43.5692V44.6613C13.8076 45.3516 14.3725 45.9165 15.0628 45.9165C15.7532 45.9165 16.3181 45.3516 16.3181 44.6613V43.5567C18.8411 42.8412 20.3097 40.2303 19.5942 37.7073Z" fill="#D8C596"/>
</svg>
