<svg width="55" height="55" viewBox="0 0 55 55" fill="none" xmlns="http://www.w3.org/2000/svg">
<g clip-path="url(#clip0_93_276)">
<path d="M50.0586 43.2833V35.127C50.0586 34.2371 49.3371 33.5156 48.4473 33.5156H38.7793C37.8894 33.5156 37.168 34.2371 37.168 35.127V43.1836H33.9453V35.127C33.9453 34.2371 33.2239 33.5156 32.334 33.5156H22.666C21.7761 33.5156 21.0547 34.2371 21.0547 35.127V43.1836H17.832V35.127C17.832 34.2371 17.1106 33.5156 16.2207 33.5156H6.55273C5.66285 33.5156 4.94141 34.2371 4.94141 35.127V43.2833C2.19495 43.79 0.107422 46.201 0.107422 49.0918C0.107422 52.3496 2.75784 55 6.01562 55H48.9844C52.2422 55 54.8926 52.3496 54.8926 49.0918C54.8926 46.201 52.805 43.79 50.0586 43.2833ZM22.2401 46.4062C21.8267 47.2127 21.5918 48.125 21.5918 49.0918C21.5918 50.0586 21.8267 50.9709 22.2401 51.7773H11.2755C11.6889 50.9709 11.9238 50.0586 11.9238 49.0918C11.9238 48.125 11.6889 47.2127 11.2755 46.4062H22.2401ZM24.8145 49.0918C24.8145 47.611 26.0192 46.4062 27.5 46.4062C28.9808 46.4062 30.1855 47.611 30.1855 49.0918C30.1855 50.5726 28.9808 51.7773 27.5 51.7773C26.0192 51.7773 24.8145 50.5726 24.8145 49.0918ZM32.7599 46.4062H43.7245C43.3111 47.2127 43.0762 48.125 43.0762 49.0918C43.0762 50.0586 43.3111 50.9709 43.7245 51.7773H32.7599C33.1733 50.9709 33.4082 50.0586 33.4082 49.0918C33.4082 48.125 33.1733 47.2127 32.7599 46.4062ZM40.3906 36.7383H46.8359V43.1836H40.3906V36.7383ZM24.2773 36.7383H30.7227V43.1836H24.2773V36.7383ZM8.16406 36.7383H14.6094V43.1836H8.16406V36.7383ZM3.33008 49.0918C3.33008 47.611 4.53481 46.4062 6.01562 46.4062C7.49644 46.4062 8.70117 47.611 8.70117 49.0918C8.70117 50.5726 7.49644 51.7773 6.01562 51.7773C4.53481 51.7773 3.33008 50.5726 3.33008 49.0918ZM48.9844 51.7773C47.5036 51.7773 46.2988 50.5726 46.2988 49.0918C46.2988 47.611 47.5036 46.4062 48.9844 46.4062C50.4652 46.4062 51.6699 47.611 51.6699 49.0918C51.6699 50.5726 50.4652 51.7773 48.9844 51.7773Z" fill="#D8C596"/>
<path d="M27.5 19.2202C30.1655 19.2202 32.334 17.0517 32.334 14.3862C32.334 11.7208 30.1655 9.55225 27.5 9.55225C24.8345 9.55225 22.666 11.7208 22.666 14.3862C22.666 17.0517 24.8345 19.2202 27.5 19.2202ZM27.5 12.7749C28.3885 12.7749 29.1113 13.4977 29.1113 14.3862C29.1113 15.2747 28.3885 15.9976 27.5 15.9976C26.6115 15.9976 25.8887 15.2747 25.8887 14.3862C25.8887 13.4977 26.6115 12.7749 27.5 12.7749Z" fill="#D8C596"/>
<path d="M4.32384 31.2556C4.95311 30.6265 4.95311 29.6062 4.32384 28.9769C2.85796 27.511 2.85796 25.1256 4.32384 23.6597C5.034 22.9497 5.97813 22.5585 6.98242 22.5585C7.98671 22.5585 8.93084 22.9497 9.64101 23.6597C11.1069 25.1256 11.1069 27.511 9.64101 28.9769C9.01173 29.6061 9.01173 30.6263 9.64101 31.2556C9.95564 31.5703 10.368 31.7276 10.7803 31.7276C11.1926 31.7276 11.6051 31.5703 11.9196 31.2556C13.2386 29.9369 13.9648 28.1834 13.9648 26.3183C13.9648 24.4532 13.2386 22.6997 11.9197 21.381C10.9897 20.4508 9.84296 19.8171 8.59375 19.5233V15.9974H12.998V17.6087C12.998 18.4986 13.7195 19.2201 14.6094 19.2201H17.3175C17.5767 19.7679 17.8787 20.2918 18.2217 20.7889L16.8684 23.1328C16.4233 23.9036 16.6873 24.8891 17.4581 25.3339L23.0398 28.5565C23.4098 28.7702 23.8497 28.8279 24.2626 28.7176C24.6753 28.6069 25.0273 28.3369 25.2409 27.9668L26.592 25.6267C27.1976 25.6782 27.7893 25.6787 28.4075 25.6261L29.7589 27.9668C29.9725 28.3369 30.3246 28.6069 30.7372 28.7176C30.8743 28.7543 31.0145 28.7725 31.1543 28.7725C31.4346 28.7725 31.7129 28.6992 31.9599 28.5565L37.5417 25.3339C38.3124 24.8889 38.5765 23.9036 38.1314 23.1328L36.7781 20.789C37.1211 20.2918 37.423 19.768 37.6823 19.2202H40.3906C41.2805 19.2202 42.002 18.4987 42.002 17.6089V15.9975H46.4062V19.5234C45.157 19.8171 44.0103 20.4509 43.0803 21.3811C41.7614 22.6997 41.0352 24.4532 41.0352 26.3183C41.0352 28.1834 41.7614 29.9369 43.0803 31.2556C43.7094 31.8848 44.7297 31.8848 45.359 31.2556C45.9883 30.6265 45.9883 29.6062 45.359 28.9769C43.8931 27.511 43.8931 25.1256 45.359 23.6597C46.0692 22.9497 47.0133 22.5585 48.0176 22.5585C49.0219 22.5585 49.966 22.9497 50.6762 23.6597C52.142 25.1256 52.142 27.511 50.6762 28.9769C50.0469 29.6061 50.0469 30.6263 50.6762 31.2556C50.9908 31.5703 51.4032 31.7276 51.8155 31.7276C52.2278 31.7276 52.6403 31.5703 52.9548 31.2556C54.2737 29.9369 55 28.1834 55 26.3183C55 24.4532 54.2737 22.6997 52.9549 21.381C52.0248 20.4508 50.8781 19.8171 49.6289 19.5233V14.3861C49.6289 13.4962 48.9075 12.7748 48.0176 12.7748H42.002V11.1634C42.002 10.2736 41.2805 9.55211 40.3906 9.55211H37.6825C37.4232 9.00415 37.1213 8.48036 36.7783 7.98332L38.1317 5.63959C38.5767 4.86884 38.3127 3.88335 37.5419 3.43852L31.9602 0.215863C31.5901 0.00220059 31.1501 -0.0555924 30.7374 0.0548373C30.3247 0.165482 29.9727 0.43554 29.7591 0.805609L28.4077 3.14633C27.7892 3.09359 27.1975 3.09402 26.5922 3.14569L25.241 0.805609C25.0274 0.43554 24.6753 0.165482 24.2627 0.0548373C23.8501 -0.0555924 23.4101 0.00209317 23.04 0.215863L17.4582 3.43852C16.6875 3.88346 16.4234 4.86884 16.8685 5.63959L18.2218 7.98354C17.8788 8.48058 17.5768 9.00447 17.3176 9.55222H14.6094C13.7195 9.55222 12.998 10.2737 12.998 11.1635V12.7749H6.98242C6.09254 12.7749 5.37109 13.4963 5.37109 14.3862V19.5234C4.12188 19.8171 2.97516 20.4509 2.0451 21.3811C0.726279 22.6997 0 24.4532 0 26.3183C0 28.1834 0.726279 29.9369 2.0451 31.2556C2.67438 31.8848 3.69467 31.8848 4.32384 31.2556ZM16.2207 12.7749H18.3938C19.0764 12.7749 19.6851 12.3448 19.9128 11.7013C20.2454 10.7621 20.7388 9.90607 21.3795 9.15701C21.8234 8.63795 21.8919 7.89545 21.5504 7.30399L20.4649 5.42367L23.2558 3.81235L24.341 5.69212C24.6822 6.28305 25.3591 6.59457 26.0291 6.47104C27.0603 6.28058 27.9401 6.28058 28.9709 6.47104C29.642 6.59457 30.318 6.28294 30.6591 5.69212L31.7442 3.81235L34.5351 5.42367L33.4496 7.30399C33.108 7.89556 33.1766 8.63806 33.6206 9.15712C34.261 9.90574 34.7545 10.7618 35.0872 11.7015C35.315 12.3449 35.9236 12.7749 36.6062 12.7749H38.7793V15.9975H36.6062C35.9236 15.9975 35.315 16.4275 35.0872 17.071C34.7544 18.0106 34.261 18.8668 33.6206 19.6154C33.1766 20.1345 33.1081 20.877 33.4496 21.4685L34.5351 23.3488L31.7442 24.9602L30.659 23.0804C30.3676 22.5758 29.832 22.2746 29.264 22.2746C29.1669 22.2746 29.0689 22.2834 28.9708 22.3015C27.941 22.4917 27.0595 22.4917 26.029 22.3015C25.359 22.178 24.6821 22.4896 24.3409 23.0804L23.2557 24.9602L20.4648 23.3488L21.5503 21.4685C21.8918 20.8771 21.8233 20.1346 21.3794 19.6155C20.7387 18.8664 20.2452 18.0104 19.9127 17.0711C19.685 16.4276 19.0764 15.9975 18.3937 15.9975H16.2207V12.7749Z" fill="#D8C596"/>
</g>
<defs>
<clipPath id="clip0_93_276">
<rect width="55" height="55" fill="white"/>
</clipPath>
</defs>
</svg>
