<svg width="35" height="35" viewBox="0 0 35 35" fill="none" xmlns="http://www.w3.org/2000/svg">
<path d="M33.9746 2.73438H30.5566C30.1791 2.73438 29.873 3.04042 29.873 3.41797V3.75977H27.8223C27.5652 3.75977 27.3416 3.90182 27.2248 4.11154C21.0297 4.35436 16.0645 9.46914 16.0645 15.7227V16.4062H15.7227C15.3451 16.4062 15.0391 16.7123 15.0391 17.0898V19.8242C15.0391 20.2018 15.3451 20.5078 15.7227 20.5078H16.0645V23.0371C16.0645 23.6756 15.8156 24.2758 15.3638 24.729C14.9112 25.1802 14.3104 25.4297 13.6719 25.4297C13.0334 25.4297 12.4325 25.1802 11.98 24.729C11.5281 24.2758 11.2793 23.6756 11.2793 23.0371V20.5078H11.6211C11.9986 20.5078 12.3047 20.2018 12.3047 19.8242V17.0898C12.3047 16.7123 11.9986 16.4062 11.6211 16.4062H11.2793V7.42731C11.4834 7.30905 11.6211 7.0888 11.6211 6.83594V4.78516H11.9629C12.3404 4.78516 12.6465 4.47911 12.6465 4.10156V0.683594C12.6465 0.306045 12.3404 0 11.9629 0H1.02539C0.647842 0 0.341797 0.306045 0.341797 0.683594V4.10156C0.341797 4.47911 0.647842 4.78516 1.02539 4.78516H1.36719V6.83594C1.36719 7.0888 1.50486 7.30912 1.70898 7.42731V16.4062H1.36719C0.989639 16.4062 0.683594 16.7123 0.683594 17.0898V19.8242C0.683594 20.2018 0.989639 20.5078 1.36719 20.5078H1.70898V23.0371C1.70898 24.6524 2.02549 26.2186 2.64893 27.6938C2.94902 28.4026 3.32021 29.0862 3.75225 29.7254C4.18018 30.3591 4.67168 30.9545 5.21309 31.4959C5.75449 32.0373 6.3499 32.5288 6.98359 32.9567C7.62275 33.3888 8.30635 33.76 9.01523 34.0601C10.4904 34.6835 12.0562 35 13.6715 35L13.6719 34.9966V34.9993V35C14.5605 35 15.4024 34.907 16.2418 34.7231C17.0581 34.544 17.8581 34.2781 18.6196 33.9315C19.3668 33.5918 20.0826 33.1721 20.7463 32.6854C21.4046 32.2014 22.0158 31.649 22.562 31.042C22.8143 30.7617 22.7917 30.329 22.5115 30.0768C22.3857 29.9633 22.2237 29.9011 22.0542 29.9011C21.8607 29.9011 21.6755 29.9831 21.5463 30.1267C19.5378 32.3545 16.6681 33.6328 13.6719 33.6328C10.8425 33.6328 8.18193 32.5302 6.17969 30.5293C4.17881 28.5271 3.07617 25.8665 3.07617 23.0371V20.5078H9.91211V23.0371C9.91211 23.545 10.0119 24.0372 10.2074 24.5007C10.3968 24.9484 10.6682 25.3504 11.0134 25.6956C11.3586 26.0408 11.7605 26.3115 12.2083 26.5016C12.6718 26.6971 13.164 26.7969 13.6719 26.7969C14.1798 26.7969 14.672 26.6971 15.1354 26.5016C15.5832 26.3115 15.9852 26.0408 16.3304 25.6956C16.6756 25.3504 16.947 24.9484 17.1363 24.5007C17.3318 24.0372 17.4316 23.545 17.4316 23.0371V20.5078H24.2676V23.0371C24.2676 23.7022 24.2054 24.3681 24.083 25.0168C24.0488 25.1966 24.0871 25.3784 24.1903 25.5288C24.2929 25.6799 24.4487 25.7817 24.6278 25.8152C24.6702 25.8234 24.7133 25.8275 24.7557 25.8275C25.0831 25.8275 25.3654 25.5931 25.4263 25.2704C25.5644 24.539 25.6348 23.7877 25.6348 23.0371V20.5078H25.9766C26.3541 20.5078 26.6602 20.2018 26.6602 19.8242V17.0898C26.6602 16.7123 26.3541 16.4062 25.9766 16.4062H25.6348V15.8594C25.6348 14.8414 26.3336 13.9837 27.2767 13.7408C27.4014 13.9063 27.5991 14.0137 27.8223 14.0137H29.873V14.3555C29.873 14.733 30.1791 15.0391 30.5566 15.0391H33.9746C34.3522 15.0391 34.6582 14.733 34.6582 14.3555V3.41797C34.6582 3.04042 34.3522 2.73438 33.9746 2.73438ZM10.9375 19.1406H2.05078V17.7734H10.9375V19.1406ZM9.91211 7.51953V16.4062H3.07617V7.51953H9.91211ZM5.46875 6.15234V4.78516H7.51953V6.15234H5.46875ZM8.88672 6.15234V4.78516H10.2539V6.15234H8.88672ZM4.10156 6.15234H2.73438V4.78516H4.10156V6.15234ZM1.70898 3.41797V1.36719H11.2793V3.41797H1.70898ZM25.293 19.1406H16.4062V17.7734H25.293V19.1406ZM27.1387 12.3707C25.5045 12.6902 24.2676 14.1331 24.2676 15.8594V16.4062H17.4316V15.7227C17.4316 10.2523 21.7381 5.76857 27.1387 5.48317V12.3707ZM29.873 12.6465H28.5059V11.2793H29.873V12.6465ZM29.873 9.91211H28.5059V7.86133H29.873V9.91211ZM29.873 6.49414H28.5059V5.12695H29.873V6.49414ZM33.291 13.6719H31.2402V4.10156H33.291V13.6719Z" fill="#A49777"/>
<path d="M7.20899 27.4619C7.08184 27.2732 6.86992 27.1611 6.64229 27.1611C6.50557 27.1611 6.37363 27.2015 6.26016 27.278C6.10908 27.3806 6.00654 27.5357 5.97168 27.7148C5.93682 27.8939 5.97442 28.0758 6.07627 28.2275C7.31152 30.0555 9.15928 31.3775 11.2798 31.9497C11.3386 31.9654 11.3987 31.9736 11.4582 31.9736C11.7665 31.9736 12.0379 31.7658 12.1179 31.4678C12.2163 31.1041 12.0003 30.7281 11.6359 30.6297C9.83262 30.1437 8.26035 29.0185 7.20899 27.4619Z" fill="#A49777"/>
<path d="M20.0143 11.3348C19.8291 11.6638 19.9456 12.0806 20.2746 12.2659C20.3806 12.3256 20.4958 12.354 20.6093 12.354C20.8482 12.354 21.0801 12.2286 21.2056 12.0057C21.2751 11.8824 21.3491 11.7593 21.4255 11.6398C22.1379 10.5262 23.132 9.61341 24.3005 8.99989C24.6348 8.82441 24.7635 8.41111 24.588 8.0769C24.4125 7.74262 23.9991 7.61397 23.665 7.78938C22.2866 8.5131 21.114 9.58976 20.2738 10.903C20.1836 11.044 20.0963 11.1893 20.0143 11.3348Z" fill="#A49777"/>
<path d="M23.7783 28.7334C24.1559 28.7334 24.4619 28.4273 24.4619 28.0498C24.4619 27.6723 24.1559 27.3662 23.7783 27.3662C23.4008 27.3662 23.0947 27.6723 23.0947 28.0498C23.0947 28.4273 23.4008 28.7334 23.7783 28.7334Z" fill="#A49777"/>
</svg>
