<svg width="93" height="93" viewBox="0 0 93 93" fill="none" xmlns="http://www.w3.org/2000/svg">
<path d="M46.4987 0C27.6213 0 12.2617 15.3596 12.2617 34.2389C12.2617 39.1633 13.2696 43.865 15.256 48.2146C23.8162 66.9463 40.2284 86.7231 45.0558 92.3376C45.4175 92.7573 45.9447 92.999 46.4996 92.999C47.0545 92.999 47.5818 92.7573 47.9435 92.3376C52.7689 86.724 69.1812 66.9482 77.7442 48.2146C79.7315 43.865 80.7385 39.1633 80.7385 34.2389C80.7366 15.3596 65.377 0 46.4987 0ZM46.4987 52.0226C36.6926 52.0226 28.714 44.044 28.714 34.2379C28.714 24.4309 36.6926 16.4522 46.4987 16.4522C56.3047 16.4522 64.2834 24.4309 64.2834 34.2379C64.2843 44.044 56.3057 52.0226 46.4987 52.0226Z" fill="#DE8C10"/>
<ellipse cx="46.6355" cy="35.2151" rx="19.9871" ry="19.9871" fill="#DE8C10"/>
<g clip-path="url(#clip0_146_301)">
<path d="M62.0839 34.5003C62.6634 33.863 62.6075 32.8861 61.959 32.319L47.6717 19.8176C47.0232 19.2504 45.9835 19.2623 45.3487 19.8443L31.0128 32.9855C30.378 33.5675 30.3468 34.5431 30.9438 35.1637L31.3033 35.538C31.8996 36.1586 32.8634 36.2326 33.4547 35.7028L34.5261 34.7433V48.79C34.5261 49.6518 35.2244 50.3495 36.0856 50.3495H41.6737C42.5349 50.3495 43.2332 49.6518 43.2332 48.79V38.963H50.361V48.79C50.3486 49.6512 50.9647 50.3488 51.8259 50.3488H57.748C58.6092 50.3488 59.3075 49.6512 59.3075 48.7893V34.9411C59.3075 34.9411 59.6034 35.2004 59.9685 35.5212C60.3329 35.8415 61.0983 35.5847 61.6778 34.9467L62.0839 34.5003Z" fill="white"/>
</g>
<defs>
<clipPath id="clip0_146_301">
<rect width="31.9688" height="31.9688" fill="white" transform="translate(30.5156 18.8906)"/>
</clipPath>
</defs>
</svg>
