<svg width="113" height="73" viewBox="0 0 113 73" fill="none" xmlns="http://www.w3.org/2000/svg">
<g clip-path="url(#clip0_16_18)">
<path d="M11.9279 63.0405C10.79 62.5863 9.57205 62.3689 8.34793 62.4017C7.43357 62.4078 6.5212 62.4881 5.61977 62.642V56.6887H9.36037C9.85035 56.6759 10.3342 56.8002 10.7578 57.0477C11.1089 57.3015 11.3693 57.662 11.5005 58.0759C11.715 58.7279 11.8712 59.3977 11.9673 60.0776C11.9831 60.1569 12.0195 60.2307 12.0727 60.2916C12.1259 60.3525 12.194 60.3982 12.2704 60.4244C12.4592 60.5161 12.6669 60.5619 12.8767 60.5582C13.0351 60.5589 13.1894 60.5076 13.3162 60.4122C13.3788 60.3694 13.4298 60.3117 13.4647 60.2443C13.4996 60.1769 13.5174 60.1018 13.5163 60.0258L13.4374 56.2598C13.4374 55.8339 13.204 55.621 12.7433 55.621H4.1981C3.24022 55.621 2.19443 55.5936 1.06073 55.5388C0.990883 55.5346 0.92112 55.5483 0.858013 55.5787C0.794905 55.609 0.74053 55.655 0.700009 55.7122C0.617773 55.8445 0.574177 55.9974 0.574177 56.1533C0.574177 56.3093 0.617773 56.4621 0.700009 56.5944C0.808291 56.6687 0.93932 56.7022 1.06983 56.6887H1.23048C1.63233 56.6577 2.03359 56.7557 2.37631 56.9686C2.61059 57.1347 2.77569 57.3816 2.84009 57.6622C2.91271 58.0188 2.95329 58.3812 2.96134 58.7451V69.3588C2.95311 69.7217 2.91253 70.0831 2.84009 70.4388C2.77569 70.7193 2.61059 70.9662 2.37631 71.1324C2.03359 71.3452 1.63233 71.4432 1.23048 71.4122C1.05761 71.3981 0.883906 71.4263 0.724259 71.4944C0.636352 71.5461 0.58482 71.7073 0.566633 71.975C0.562952 72.1218 0.604213 72.2662 0.684853 72.3887C0.725374 72.446 0.779749 72.4919 0.842856 72.5223C0.905963 72.5526 0.975726 72.5663 1.04557 72.5621C2.19746 72.5074 3.25235 72.48 4.21023 72.48L7.48401 72.5074C8.66173 72.5122 9.83424 72.3504 10.967 72.0267C12.0285 71.7407 12.9939 71.1733 13.7618 70.384C14.1401 69.9769 14.4336 69.4982 14.6251 68.9758C14.8167 68.4535 14.9024 67.898 14.8773 67.342C14.8964 66.439 14.6428 65.5514 14.1498 64.7958C13.5948 64.0064 12.8227 63.3965 11.9279 63.0405ZM7.57798 71.397C6.8141 71.397 6.29575 71.248 6.02293 70.9438C5.75012 70.6396 5.60765 70.0555 5.60765 69.1824V63.7371C6.15531 63.6192 6.71487 63.5661 7.27485 63.579C8.44195 63.5403 9.59319 63.8586 10.5759 64.4916C11.4792 65.1 11.9309 66.0562 11.9309 67.3602C11.937 70.0169 10.486 71.3625 7.57798 71.397Z" fill="#A49777"/>
<path d="M49.9434 57.6622C50.0094 57.3783 50.1807 57.1303 50.4224 56.9686C50.7689 56.757 51.1727 56.6592 51.5773 56.6888C51.7461 56.7005 51.9154 56.6724 52.0714 56.6066C52.1684 56.5549 52.226 56.3937 52.2442 56.126C52.2478 55.9788 52.2054 55.8341 52.1229 55.7123C52.0831 55.655 52.0293 55.609 51.9666 55.5787C51.904 55.5483 51.8347 55.5346 51.7652 55.5389C50.6295 55.5936 49.5746 55.621 48.6006 55.621C47.5336 55.621 46.4272 55.5936 45.2662 55.5389C45.1985 55.5378 45.1316 55.5529 45.0709 55.5831C45.0103 55.6133 44.9577 55.6576 44.9176 55.7123C44.8298 55.8319 44.7839 55.9774 44.7872 56.126C44.8024 56.3754 44.8509 56.5336 44.9327 56.5945C45.0469 56.6683 45.1825 56.7015 45.3177 56.6888H45.4784C45.8792 56.658 46.2795 56.756 46.6212 56.9686C46.8562 57.1346 47.0223 57.3814 47.088 57.6622C47.1579 58.0192 47.1974 58.3815 47.2062 58.7452V63.4695H38.8611V58.7452C38.8691 58.3813 38.9097 58.0188 38.9823 57.6622C39.047 57.381 39.2133 57.1338 39.4492 56.9686C39.7905 56.7552 40.191 56.6571 40.5919 56.6888C40.7648 56.7028 40.9385 56.6747 41.0982 56.6066C41.1861 56.5549 41.2376 56.3937 41.2558 56.126C41.2589 55.9793 41.2177 55.835 41.1376 55.7123C41.0973 55.6548 41.0429 55.6087 40.9798 55.5783C40.9166 55.548 40.8467 55.5344 40.7769 55.5389C39.625 55.5936 38.5135 55.621 37.4424 55.621C36.5028 55.621 35.457 55.5936 34.3051 55.5389C34.2352 55.5347 34.1655 55.5484 34.1024 55.5787C34.0392 55.6091 33.9849 55.655 33.9444 55.7123C33.8621 55.8446 33.8185 55.9974 33.8185 56.1534C33.8185 56.3093 33.8621 56.4621 33.9444 56.5945C34.0536 56.6692 34.1857 56.7027 34.3172 56.6888H34.4748C34.8767 56.6578 35.2779 56.7558 35.6206 56.9686C35.8549 57.1348 36.02 57.3817 36.0844 57.6622C36.1571 58.0188 36.1976 58.3813 36.2057 58.7452V69.3589C36.1975 69.7218 36.1569 70.0832 36.0844 70.4388C36.02 70.7193 35.8549 70.9663 35.6206 71.1324C35.2779 71.3452 34.8767 71.4432 34.4748 71.4123C34.3019 71.3982 34.1282 71.4264 33.9686 71.4944C33.9044 71.5483 33.8623 71.6242 33.8504 71.7073C33.8393 71.6326 33.8066 71.5628 33.7564 71.5066C33.6466 71.4332 33.5149 71.3999 33.3836 71.4123H33.2259C33.0149 71.415 32.8061 71.3683 32.6161 71.2759C32.4261 71.1835 32.2603 71.0479 32.1316 70.8799C31.8129 70.407 31.5543 69.8961 31.3617 69.3589L26.8906 58.2889C26.6425 57.6179 26.2725 56.999 25.7993 56.4636C25.4254 56.0758 24.9508 55.8008 24.4292 55.6697C23.7325 55.5175 23.02 55.4501 22.3073 55.4689C22.1193 55.4564 21.9313 55.4931 21.7616 55.5754C21.6981 55.6255 21.6487 55.6915 21.6184 55.7668C21.5881 55.842 21.5779 55.9239 21.5889 56.0043C21.5889 56.2537 21.6222 56.4028 21.695 56.4576C21.8702 56.5428 22.059 56.5964 22.2527 56.6157C22.6141 56.6783 22.9638 56.7963 23.2894 56.9656C23.4109 57.0336 23.5105 57.135 23.5766 57.2578C23.6426 57.3807 23.6724 57.5199 23.6623 57.6592C23.6487 57.8799 23.5953 58.0964 23.5046 58.298L18.8577 69.3589L18.5546 70.0646C18.4048 70.4072 18.2 70.7227 17.9483 70.9985C17.794 71.1474 17.6098 71.2614 17.408 71.3327C17.2061 71.4041 16.9914 71.4312 16.7782 71.4123H16.5388C16.4323 71.4124 16.3277 71.4408 16.2356 71.4944C16.1477 71.5461 16.0932 71.7073 16.075 71.975C16.071 72.1223 16.1134 72.2671 16.1962 72.3888C16.2361 72.446 16.2899 72.492 16.3525 72.5223C16.4151 72.5527 16.4845 72.5664 16.5539 72.5622C17.7088 72.5074 18.5667 72.48 19.1366 72.48C19.9328 72.48 20.8987 72.5074 22.0345 72.5622C22.1043 72.5663 22.1741 72.5526 22.2372 72.5223C22.3003 72.492 22.3547 72.446 22.3952 72.3888C22.4758 72.2662 22.5171 72.1218 22.5134 71.975C22.5232 71.8082 22.4762 71.643 22.38 71.5066C22.2702 71.4332 22.1386 71.3999 22.0072 71.4123H21.8253C21.3157 71.4392 20.8049 71.39 20.3097 71.2662C20.1835 71.2264 20.0748 71.1441 20.002 71.0333C19.9291 70.9225 19.8965 70.7899 19.9095 70.6578C19.9611 70.2117 20.0628 69.7729 20.2127 69.3498C20.2368 69.2462 20.2682 69.1446 20.3066 69.0455C20.3673 68.8691 20.6098 68.2272 21.0644 67.123H27.6635L28.5729 69.3406C28.7369 69.7414 28.844 70.1633 28.8912 70.5939C28.9019 70.724 28.872 70.8541 28.8057 70.9664C28.7395 71.0786 28.6401 71.1675 28.5214 71.2206C28.1103 71.3615 27.6758 71.4204 27.2422 71.394C27.1109 71.3826 26.9796 71.4158 26.8693 71.4883C26.7747 71.6253 26.7288 71.7904 26.739 71.9568C26.7353 72.1036 26.7766 72.248 26.8572 72.3705C26.8971 72.4277 26.9509 72.4737 27.0135 72.5041C27.0761 72.5344 27.1455 72.5482 27.2149 72.5439C28.3527 72.4891 29.453 72.4618 30.516 72.4618C31.3243 72.4618 32.2994 72.4891 33.4412 72.5439C33.511 72.5481 33.5808 72.5344 33.6439 72.504C33.707 72.4737 33.7614 72.4278 33.8019 72.3705C33.8348 72.317 33.8612 72.2599 33.8807 72.2001C33.8989 72.2604 33.9254 72.3177 33.9595 72.3705C34 72.4278 34.0544 72.4737 34.1175 72.504C34.1806 72.5344 34.2504 72.5481 34.3202 72.5439C35.4721 72.4891 36.527 72.4618 37.4849 72.4618C38.5499 72.4618 39.6492 72.4891 40.7829 72.5439C40.8528 72.5484 40.9227 72.5348 40.9858 72.5044C41.049 72.4741 41.1033 72.428 41.1436 72.3705C41.2243 72.248 41.2655 72.1036 41.2619 71.9568C41.2717 71.79 41.2246 71.6248 41.1285 71.4883C41.0196 71.4154 40.8891 71.3821 40.7587 71.394H40.598C40.1971 71.4256 39.7966 71.3275 39.4552 71.1141C39.2194 70.949 39.053 70.7018 38.9884 70.4206C38.916 70.0649 38.8754 69.7035 38.8671 69.3406V64.6163H47.2213V69.3589C47.2124 69.7216 47.1729 70.0828 47.1031 70.4388C47.0374 70.7196 46.8713 70.9664 46.6363 71.1324C46.2946 71.345 45.8944 71.443 45.4935 71.4123C45.3167 71.3992 45.1394 71.4274 44.9752 71.4944C44.8751 71.5461 44.8175 71.7073 44.8024 71.975C44.7986 72.1237 44.8445 72.2693 44.9327 72.3888C44.9729 72.4435 45.0254 72.4877 45.0861 72.5179C45.1467 72.5481 45.2137 72.5632 45.2813 72.5622C46.4332 72.5074 47.5305 72.48 48.5794 72.48C49.5696 72.48 50.6336 72.5074 51.7713 72.5622C51.8407 72.5664 51.9101 72.5527 51.9727 72.5223C52.0353 72.492 52.0891 72.446 52.129 72.3888C52.2118 72.2671 52.2542 72.1223 52.2502 71.975C52.2605 71.8063 52.2088 71.6396 52.1047 71.5066C51.9974 71.4379 51.8711 71.4049 51.744 71.4123H51.5834C51.1787 71.4419 50.775 71.344 50.4284 71.1324C50.1868 70.9707 50.0155 70.7227 49.9495 70.4388C49.8771 70.0832 49.8365 69.7218 49.8283 69.3589V58.7452C49.8343 58.3815 49.8729 58.019 49.9434 57.6622ZM21.598 65.9792L24.417 59.1163H24.4959L27.1846 65.9792H21.598Z" fill="#A49777"/>
<path d="M70.5862 57.6623C70.6496 57.3813 70.8149 57.134 71.05 56.9687C71.3927 56.7558 71.794 56.6578 72.1958 56.6888C72.3687 56.7029 72.5424 56.6747 72.7021 56.6067C72.79 56.555 72.8415 56.3937 72.8597 56.126C72.8597 55.7367 72.7021 55.5389 72.3808 55.5389C71.9018 55.5389 71.4501 55.5572 71.0258 55.5937C70.6709 55.6199 70.3237 55.7106 70.0012 55.8614C69.6192 56.0713 69.2733 56.3414 68.9766 56.6614C68.4118 57.2554 67.8786 57.8789 67.3791 58.5293L59.7464 68.1938V58.7452C59.7537 58.3814 59.7932 58.019 59.8646 57.6623C59.9303 57.3815 60.0964 57.1347 60.3314 56.9687C60.6729 56.7557 61.0733 56.6576 61.4742 56.6888C61.6471 56.7029 61.8208 56.6747 61.9804 56.6067C62.0683 56.555 62.1229 56.3937 62.1381 56.126C62.1412 55.9793 62.1 55.8351 62.0198 55.7123C61.9795 55.6549 61.9252 55.6087 61.862 55.5784C61.7989 55.548 61.729 55.5344 61.6591 55.5389C60.5072 55.5937 59.3978 55.6211 58.3247 55.6211C57.3668 55.6211 56.318 55.5937 55.1843 55.5389C55.1145 55.5347 55.0447 55.5484 54.9816 55.5788C54.9185 55.6091 54.8641 55.6551 54.8236 55.7123C54.7414 55.8446 54.6978 55.9975 54.6978 56.1534C54.6978 56.3094 54.7414 56.4622 54.8236 56.5945C54.9328 56.6693 55.0649 56.7027 55.1964 56.6888H55.3541C55.7559 56.6578 56.1572 56.7558 56.4999 56.9687C56.735 57.134 56.9003 57.3813 56.9637 57.6623C57.0363 58.0189 57.0769 58.3813 57.0849 58.7452V69.3589C57.0767 69.7218 57.0361 70.0833 56.9637 70.4389C56.9003 70.7199 56.735 70.9672 56.4999 71.1325C56.1572 71.3453 55.7559 71.4433 55.3541 71.4123C55.1877 71.3985 55.0204 71.4245 54.866 71.4884C54.7751 71.5401 54.7236 71.7013 54.7054 71.969C54.7054 72.3432 54.866 72.5379 55.1843 72.5561C55.6993 72.572 56.2147 72.5537 56.7272 72.5014C57.0608 72.4753 57.3837 72.3712 57.67 72.1972C58.023 71.9633 58.3449 71.6853 58.6278 71.3697C58.9916 70.9864 59.511 70.378 60.1859 69.5445L67.8581 59.9286V69.3589C67.8491 69.7216 67.8096 70.0829 67.7399 70.4389C67.6742 70.7197 67.5081 70.9665 67.273 71.1325C66.9315 71.3455 66.5312 71.4435 66.1303 71.4123C65.9624 71.4006 65.7942 71.4287 65.6392 71.4945C65.5392 71.5462 65.4816 71.7074 65.4634 71.9751C65.4608 72.1222 65.5031 72.2666 65.5846 72.3888C65.6245 72.446 65.6783 72.492 65.7409 72.5224C65.8035 72.5528 65.8729 72.5665 65.9423 72.5622C67.0972 72.5075 68.1946 72.4801 69.2434 72.4801C70.2013 72.4801 71.2471 72.5075 72.3808 72.5622C72.4506 72.5664 72.5204 72.5527 72.5835 72.5224C72.6466 72.492 72.701 72.4461 72.7415 72.3888C72.8221 72.2663 72.8634 72.1219 72.8597 71.9751C72.8695 71.8083 72.8225 71.6431 72.7263 71.5066C72.6174 71.4337 72.4869 71.4004 72.3565 71.4123H72.1958C71.794 71.4433 71.3927 71.3453 71.05 71.1325C70.8149 70.9672 70.6496 70.7199 70.5862 70.4389C70.5138 70.0833 70.4732 69.7218 70.465 69.3589V58.7452C70.473 58.3813 70.5136 58.0189 70.5862 57.6623Z" fill="#A49777"/>
<path d="M91.4689 57.6618C91.5349 57.3779 91.7062 57.1299 91.9479 56.9682C92.2956 56.7567 92.7003 56.6589 93.1058 56.6883C93.2737 56.7001 93.4419 56.672 93.5969 56.6062C93.6939 56.5545 93.7515 56.3933 93.7697 56.1256C93.7728 55.9788 93.7316 55.8346 93.6515 55.7119C93.6109 55.6546 93.5566 55.6086 93.4934 55.5783C93.4303 55.548 93.3606 55.5343 93.2907 55.5385C92.157 55.5932 91.1022 55.6206 90.1261 55.6206C89.0631 55.6206 87.9516 55.5932 86.7917 55.5385C86.7244 55.5371 86.6578 55.5522 86.5976 55.5824C86.5374 55.6126 86.4854 55.657 86.4461 55.7119C86.3559 55.8305 86.3089 55.9764 86.3127 56.1256C86.3309 56.375 86.3794 56.5332 86.4582 56.594C86.5724 56.6679 86.708 56.7011 86.8432 56.6883H87.0039C87.4048 56.6572 87.8051 56.7552 88.1467 56.9682C88.3817 57.1342 88.5478 57.381 88.6135 57.6618C88.6849 58.0186 88.7244 58.381 88.7317 58.7448V63.4691H80.3896V58.7448C80.3984 58.3811 80.438 58.0188 80.5078 57.6618C80.5735 57.381 80.7397 57.1342 80.9747 56.9682C81.3162 56.7552 81.7165 56.6572 82.1174 56.6883C82.2903 56.7027 82.4641 56.6745 82.6237 56.6062C82.7116 56.5545 82.7661 56.3933 82.7843 56.1256C82.7865 55.9785 82.7443 55.8343 82.6631 55.7119C82.6232 55.6546 82.5694 55.6086 82.5068 55.5783C82.4442 55.5479 82.3748 55.5342 82.3054 55.5385C81.1505 55.5932 80.0441 55.6206 78.971 55.6206C78.0313 55.6206 76.9825 55.5932 75.8306 55.5385C75.7611 55.5339 75.6917 55.5475 75.629 55.5779C75.5663 55.6083 75.5125 55.6544 75.4729 55.7119C75.3905 55.8337 75.3481 55.9783 75.3516 56.1256C75.3428 56.2923 75.3897 56.4572 75.485 56.594C75.5942 56.6688 75.7264 56.7023 75.8579 56.6883H76.0185C76.4194 56.6576 76.8196 56.7556 77.1613 56.9682C77.3963 57.1342 77.5624 57.381 77.6281 57.6618C77.698 58.0188 77.7376 58.3811 77.7464 58.7448V69.3585C77.7374 69.7212 77.6979 70.0824 77.6281 70.4384C77.5624 70.7192 77.3963 70.966 77.1613 71.132C76.8196 71.3446 76.4194 71.4426 76.0185 71.4119C75.8456 71.3975 75.6719 71.4257 75.5123 71.494C75.4214 71.5457 75.3698 71.7069 75.3516 71.9746C75.3476 72.1219 75.3901 72.2667 75.4729 72.3884C75.5125 72.4458 75.5663 72.4919 75.629 72.5223C75.6917 72.5527 75.7611 72.5663 75.8306 72.5617C76.9825 72.507 78.0404 72.4796 78.9952 72.4796C80.0622 72.4796 81.1596 72.507 82.2963 72.5617C82.3657 72.566 82.4351 72.5523 82.4977 72.5219C82.5603 72.4916 82.6142 72.4456 82.654 72.3884C82.7355 72.2661 82.7778 72.1217 82.7752 71.9746C82.7834 71.808 82.7365 71.6433 82.6419 71.5062C82.5316 71.4337 82.4003 71.4005 82.269 71.4119H82.1084C81.7074 71.443 81.3071 71.345 80.9656 71.132C80.7306 70.966 80.5644 70.7192 80.4987 70.4384C80.429 70.0824 80.3895 69.7212 80.3805 69.3585V64.6159H88.7317V69.3585C88.7243 69.7213 88.6847 70.0827 88.6135 70.4384C88.5478 70.7192 88.3817 70.966 88.1467 71.132C87.8051 71.345 87.4048 71.443 87.0039 71.4119C86.8271 71.3988 86.6497 71.427 86.4855 71.494C86.3885 71.5457 86.3309 71.7069 86.3127 71.9746C86.3084 72.1238 86.3555 72.27 86.4461 72.3884C86.4854 72.4432 86.5374 72.4876 86.5976 72.5178C86.6578 72.548 86.7244 72.5631 86.7917 72.5617C87.9436 72.507 89.0429 72.4796 90.0897 72.4796C91.084 72.4796 92.1479 72.507 93.2816 72.5617C93.3515 72.5659 93.4212 72.5522 93.4844 72.5219C93.5475 72.4916 93.6018 72.4456 93.6424 72.3884C93.723 72.2658 93.7643 72.1214 93.7606 71.9746C93.7709 71.8059 93.7191 71.6392 93.6151 71.5062C93.5077 71.4375 93.3815 71.4045 93.2544 71.4119H93.0967C92.6912 71.4413 92.2865 71.3435 91.9388 71.132C91.6971 70.9703 91.5259 70.7223 91.4598 70.4384C91.3871 70.0829 91.3475 69.7214 91.3416 69.3585V58.7448C91.3503 58.3806 91.393 58.018 91.4689 57.6618Z" fill="#A49777"/>
<path d="M108.708 56.302C107.35 55.4752 105.785 55.0532 104.197 55.0852C102.794 55.1015 101.42 55.483 100.208 56.1925C98.8713 56.9544 97.7572 58.0547 96.9766 59.3836C96.1099 60.8621 95.6721 62.5542 95.7125 64.2691C95.7041 65.7667 96.0643 67.2433 96.7614 68.5675C97.4455 69.8893 98.4703 71.0029 99.729 71.7921C101.003 72.5682 102.461 72.9874 103.951 73.0062C105.441 73.0249 106.909 72.6424 108.201 71.8986C109.554 71.138 110.683 70.0332 111.475 68.6953C112.354 67.213 112.8 65.5129 112.763 63.7885C112.773 62.2956 112.413 60.8237 111.715 59.5053C111.018 58.1851 109.979 57.0784 108.708 56.302ZM109.011 67.8344C108.675 68.95 108.047 69.9545 107.192 70.7426C106.352 71.4361 105.3 71.8185 104.212 71.8257C103.124 71.8329 102.067 71.4645 101.217 70.7821C100.385 70.0335 99.7652 69.076 99.4228 68.0078C99.0096 66.7772 98.8057 65.4855 98.8196 64.187C98.8196 61.8913 99.2672 59.991 100.162 58.4862C100.556 57.7747 101.139 57.1871 101.846 56.789C102.553 56.3909 103.357 56.1981 104.167 56.232C105.25 56.2016 106.307 56.5657 107.143 57.2572C107.989 57.9882 108.624 58.9338 108.98 59.995C109.398 61.21 109.603 62.4882 109.587 63.7733C109.609 65.1508 109.41 66.523 108.999 67.8374L109.011 67.8344Z" fill="#A49777"/>
<path d="M62.4716 45.6978C62.3231 44.2254 59.607 39.6137 64.7299 41.6975C69.8528 43.7813 77.1581 48.2774 78.5343 44.1311C79.9105 39.9848 74.4694 37.5816 75.0938 36.4743C75.7183 35.367 76.9945 36.0788 76.9945 36.0788C88.48 39.7566 100.278 35.8233 101.942 31.1355C103.606 26.4477 98.9258 26.5724 100.526 23.2262C102.127 19.8799 110.529 21.9637 112.585 14.9913C114.64 8.01897 108.759 5.04689 105.488 7.85166C102.218 10.6564 93.812 12.1683 94.4667 10.8298C95.1215 9.49132 95.4307 9.39702 95.1367 7.24933C94.8426 5.10165 88.1071 3.5137 82.278 5.57316C76.4488 7.63263 75.0726 6.76261 75.8123 4.96476C76.5519 3.16691 77.0248 2.09915 74.4664 0.654175C71.908 -0.790797 67.3307 0.34997 63.5538 2.30296C59.9981 4.12819 58.1702 8.00376 57.57 6.33976L57.5518 6.29109C57.2292 5.40563 56.5948 4.66928 55.7683 4.22096C54.9418 3.77264 53.9805 3.64334 53.0655 3.85745C47.2697 5.23854 45.5268 9.77119 43.1987 13.4703C40.4918 17.7748 39.6521 17.0021 39.2187 15.9374C38.7124 14.6871 40.2796 11.5447 36.4087 11.7151C33.0439 11.8611 30.3461 17.2425 24.1956 22.1949C19.3729 26.0644 17.9542 30.0251 17.5632 31.5644C20.3695 29.7555 23.2795 28.114 26.2781 26.6485C27.6554 25.9988 29.0729 25.4389 30.5219 24.9723C30.7038 24.6255 31.1949 23.7737 31.1949 23.7737H30.5401L31.3434 22.6816L30.9281 22.6634L31.7769 21.334L32.6863 22.6603L32.177 22.6421L33.1319 23.7646L32.5256 23.8133L32.9742 24.2665C33.8351 24.0627 34.3626 24.0506 35.1173 23.935L34.8597 21.982L34.3504 22.0489L36.0843 18.4897L36.7724 18.3893L36.6815 17.6896L37.3181 17.6045L37.409 18.295L41.7649 17.6592L43.7292 20.8108L43.3321 20.8625L43.5655 22.6451C44.2809 22.6025 45.3146 22.5113 45.3146 22.5113L45.6814 19.9255L45.166 19.8525L47.8942 16.2781L48.5853 16.3663L48.7035 15.5389L49.3371 15.6302L49.2219 16.4454L53.59 16.993L54.5539 21.1819L54.1568 21.1241L53.8779 23.0893C54.2811 23.144 54.6842 23.2049 55.0904 23.2657L55.5482 23.3509L56.1544 22.5995L55.4512 22.4687L56.5182 21.4374L56.0726 21.3401L57.2184 20.0776L57.9489 21.6717L57.4063 21.5591L58.1035 22.7394L59.2706 21.477L58.5552 21.3857L59.6677 19.6791L58.7795 19.5696L60.377 17.3885L59.7162 17.2942L61.6259 14.1365L62.7687 17.4615L61.8987 17.355L62.8717 19.6913L62.0442 19.5879L63.0627 22.2345L61.9866 22.1006L62.4292 23.0132L63.2597 24.7533L64.1691 24.9175L64.645 21.3005L67.0913 18.4349L71.1805 19.0768L71.3532 17.7657L71.7382 17.8174C71.5215 17.5372 71.3553 17.2211 71.2471 16.8835C71.1085 16.4898 71.1085 16.0603 71.2471 15.6667C71.2836 15.5577 71.3368 15.455 71.4048 15.3625C71.4645 15.2687 71.5358 15.1828 71.617 15.1069C71.6908 15.029 71.7732 14.9596 71.8625 14.9001L71.9928 14.8058L72.1262 14.7328C72.4957 14.5236 72.9146 14.4185 73.3387 14.4286C73.7471 14.4565 74.1468 14.5596 74.5179 14.7328C74.8695 14.8818 75.1848 15.037 75.5 15.1799C75.8084 15.3187 76.1266 15.4346 76.4519 15.5267C76.5233 15.55 76.5962 15.5683 76.6701 15.5815C76.7353 15.5929 76.8011 15.6 76.8671 15.6028C76.9907 15.6062 77.1138 15.5876 77.2309 15.548C77.5018 15.4287 77.7461 15.2559 77.9493 15.04C78.1948 14.8027 78.4495 14.532 78.7556 14.2765C79.0782 14.0016 79.4601 13.8058 79.8711 13.7046C80.0807 13.6638 80.2945 13.6485 80.5077 13.6589C80.726 13.6802 80.8927 13.7076 81.0715 13.735C81.4231 13.7867 81.7748 13.8354 82.1173 13.8597C82.4473 13.8912 82.7802 13.8748 83.1055 13.811C83.7451 13.6772 84.318 13.2239 84.9243 12.8072C84.7157 13.1114 84.477 13.3937 84.2119 13.6498C83.9362 13.9161 83.6093 14.1232 83.251 14.2582C82.8825 14.3858 82.495 14.4496 82.1052 14.4468C81.7263 14.4468 81.3625 14.4225 80.9988 14.3981C80.823 14.3981 80.629 14.3677 80.4895 14.3677C80.3429 14.37 80.1971 14.3914 80.056 14.4316C79.7706 14.5224 79.5101 14.6787 79.2952 14.8879C79.0557 15.1069 78.8344 15.3777 78.5707 15.6515C78.2881 15.9704 77.938 16.2219 77.5462 16.3876C77.1124 16.5397 76.6401 16.5397 76.2063 16.3876C75.8529 16.2896 75.5082 16.1624 75.1757 16.0074C74.4937 15.7032 73.8874 15.2955 73.3266 15.2408C73.0335 15.2123 72.7381 15.2638 72.4718 15.3898C72.1996 15.4856 71.9677 15.6711 71.814 15.9161C71.6704 16.1873 71.6203 16.4986 71.6715 16.8014C71.7176 17.1438 71.8125 17.4778 71.9534 17.7931L71.8777 17.8417L72.2172 17.8874L72.0414 19.2198L73.0023 19.3719L74.718 22.6421L74.3542 22.5934L73.9511 25.6628H74.1056C74.6513 25.6628 75.1939 25.5929 75.7395 25.5533C76.0426 25.5259 76.3458 25.4925 76.6489 25.459L76.3003 22.5691L74.7847 22.6847L77.052 19.3871L80.3865 19.1346L80.3289 18.4623L81.0018 18.4106L81.0503 19.0768L82.5811 18.9612L85.3092 21.8816L83.7936 21.9972L83.9603 24.2118H83.9664C84.4514 24.0962 84.9394 23.9775 85.4214 23.8528L86.1186 21.7234L86.2035 21.4618L85.5972 21.5987L86.0883 20.3575L85.6093 20.467L85.9549 19.3597L85.3911 19.4844L85.8428 18.0334L85.8761 17.9239L85.3214 18.0486L85.6427 16.5854L85.967 15.1191L86.8764 16.3055L87.7858 17.4919L87.2311 17.6166L87.3069 17.7018L88.3314 18.8213L87.7706 18.949L88.5527 19.8039L88.0738 19.9103L89.0317 20.8229L88.3102 20.9842L88.5012 21.1849L89.7713 22.5113H89.7895C90.0709 22.4154 90.3471 22.3047 90.617 22.1797L89.8501 19.6305L89.1832 19.8312L90.1684 16.4576L93.3179 16.3085L93.1512 15.7549L93.7574 15.5693L93.9726 16.2781L94.6335 16.2447L97.1373 18.4228L96.6947 18.4593L97.0433 19.6153L101.039 17.9117C100.551 18.2402 97.1494 20.2632 96.6553 20.5431C96.1612 20.8229 95.6671 21.0815 95.167 21.3371C94.1565 21.8461 93.136 22.3135 92.1054 22.7394C90.03 23.5993 87.9042 24.3307 85.7397 24.9297C85.1637 25.0879 84.5848 25.239 84.0028 25.383C84.9901 25.4992 85.9705 25.6677 86.9401 25.888C87.7277 26.066 88.5057 26.2843 89.2711 26.542C89.6531 26.6667 90.0289 26.8127 90.4048 26.9557C90.7807 27.0987 91.1535 27.2599 91.5143 27.4364C92.9748 28.1122 94.3388 28.9808 95.5701 30.0191L95.4549 30.162C94.1889 29.2146 92.8025 28.4412 91.3324 27.8622C90.9717 27.7071 90.5958 27.5885 90.226 27.4546C89.8562 27.3208 89.4773 27.2143 89.0953 27.1169C88.3384 26.9104 87.5715 26.7429 86.7976 26.615C85.2495 26.3603 83.6831 26.2341 82.1143 26.2378C81.3322 26.2378 80.5512 26.2672 79.7711 26.326L78.9951 26.399C77.9493 26.5694 76.8975 26.7032 75.8395 26.8249C75.2788 26.8797 74.718 26.9435 74.1542 26.9709C73.8722 26.9892 73.5903 27.0135 73.3084 27.0226L72.4779 27.0744C71.3472 27.0956 70.2165 27.0744 69.0919 27.0074C67.9673 26.9405 66.8427 26.834 65.7302 26.7032C63.4992 26.4264 61.3015 26.0218 59.119 25.6476C58.1247 25.4742 57.1305 25.3069 56.1393 25.1579C57.8811 25.9785 59.5617 26.924 61.1682 27.987C62.8315 29.0893 64.3659 30.3761 65.7424 31.823C66.4224 32.5526 67.0427 33.3359 67.5975 34.1654C68.1433 34.9985 68.6072 35.8828 68.9828 36.8059L68.8161 36.8758C68.3928 35.993 67.8852 35.1536 67.3004 34.3692C66.7132 33.592 66.0644 32.8636 65.3604 32.1911C63.9418 30.8605 62.3778 29.6951 60.6983 28.7171C59.0261 27.7383 57.2845 26.8842 55.4875 26.1617C54.5782 25.7936 53.6688 25.459 52.7594 25.1487C52.1077 24.9327 51.4408 24.7228 50.786 24.5403L49.3189 24.4582C48.2307 24.4247 47.1394 24.4065 46.0512 24.4582C43.8797 24.5205 41.7142 24.7186 39.5673 25.0514C39.7522 25.0849 39.9371 25.1214 40.119 25.1609C41.8664 25.5388 43.5649 26.1166 45.1812 26.8827C46.7813 27.6347 48.2999 28.5501 49.713 29.6145C51.1171 30.6844 52.4236 31.8776 53.6172 33.1797L53.4869 33.3045C52.2401 32.082 50.8891 30.9714 49.4492 29.9856C48.022 29.0079 46.4983 28.1802 44.9023 27.5154C43.2897 26.8644 41.6922 26.1404 40.0129 25.8575C39.1711 25.691 38.3196 25.5783 37.4636 25.5199C37.0392 25.5199 36.6148 25.5199 36.1934 25.5199C35.9843 25.5199 31.9678 25.9245 29.3943 27.1382C25.5628 28.9422 21.3947 31.6374 17.448 34.5091C16.1294 35.3457 14.8502 36.24 13.5892 37.1618C12.0342 38.2965 10.5216 39.4889 9.02107 40.6966C7.52059 41.9043 6.04436 43.1303 4.58025 44.3927C3.55264 45.2719 2.31285 46.3761 1.66113 46.9541C1.62113 46.9891 1.57212 47.012 1.51971 47.0203C1.46731 47.0286 1.41365 47.0218 1.36489 47.0009C1.31614 46.9799 1.27426 46.9455 1.24409 46.9017C1.21391 46.858 1.19666 46.8065 1.19431 46.7534L1.08518 43.8117C1.08387 43.7665 1.09336 43.7216 1.11288 43.6809C1.13239 43.6401 1.16135 43.6047 1.19734 43.5775L10.0638 36.9215L9.95471 36.7663L0.557742 43.0177C0.380911 43.1381 0.237132 43.3013 0.139658 43.4922C0.0421838 43.683 -0.00584904 43.8954 -1.34464e-05 44.1098L0.0575808 48.6425V48.9467C0.0585306 49.0248 0.0821874 49.101 0.12565 49.1659C0.169113 49.2307 0.230492 49.2814 0.302259 49.3118C0.374027 49.3421 0.453063 49.3508 0.529675 49.3368C0.606287 49.3227 0.677144 49.2865 0.733556 49.2326L0.963933 49.0136C2.32801 47.6751 3.72543 46.3548 5.13194 45.0589C6.53845 43.763 7.96315 42.4671 9.41211 41.2077C10.8611 39.9483 12.3191 38.7041 13.8256 37.5147C14.8623 36.6903 15.9172 35.8872 16.9964 35.1206C17.3328 37.1892 18.9152 38.8501 20.4641 38.2447C22.7073 37.3626 28.2727 34.6856 32.2861 37.5968C36.2995 40.508 40.9041 42.7683 41.8438 40.7331C42.7834 38.698 41.1647 35.6164 43.3382 36.2279C45.5116 36.8393 48.7248 43.5288 54.4812 47.0788C60.2375 50.6289 62.6171 47.1732 62.4716 45.6978Z" fill="#A49777"/>
</g>
<defs>
<clipPath id="clip0_16_18">
<rect width="113" height="73" fill="white"/>
</clipPath>
</defs>
</svg>
