<svg width="55" height="55" viewBox="0 0 55 55" fill="none" xmlns="http://www.w3.org/2000/svg">
<g clip-path="url(#clip0_93_350)">
<path d="M9.67342 42.5336C8.90343 42.5336 8.16322 42.7258 7.50652 43.0867C4.0472 38.6522 2.14844 33.1434 2.14844 27.5C2.14844 13.5209 13.5209 2.14844 27.5 2.14844C29.1994 2.14844 30.8981 2.31754 32.5488 2.65114C33.1296 2.76863 33.6969 2.39265 33.8144 1.81107C33.9319 1.22948 33.5559 0.662994 32.9743 0.545082C31.1838 0.183372 29.3421 0 27.5 0C20.1546 0 13.2486 2.86053 8.05454 8.05454C2.86053 13.2486 0 20.1546 0 27.5C0 33.6789 2.09808 39.7087 5.91785 44.5427C5.42606 45.2775 5.16171 46.1411 5.16171 47.0453C5.16171 48.2505 5.63126 49.3834 6.4835 50.2353C7.33532 51.0875 8.46828 51.557 9.67342 51.557C10.8786 51.557 12.0115 51.0875 12.8638 50.2353C13.716 49.3834 14.1851 48.25 14.1851 47.0449C14.1851 45.8402 13.716 44.7068 12.8638 43.855C12.0115 43.0027 10.8786 42.5336 9.67342 42.5336ZM11.3443 48.7162C10.8983 49.1627 10.3045 49.4086 9.67342 49.4086C9.04232 49.4086 8.44898 49.1627 8.00251 48.7162C7.55604 48.2698 7.31014 47.6764 7.31014 47.0453C7.31014 46.4138 7.55604 45.8205 8.00251 45.374C8.44856 44.9275 9.04232 44.682 9.67342 44.682C10.3045 44.682 10.8979 44.9279 11.3443 45.374C11.7908 45.8205 12.0367 46.4138 12.0367 47.0453C12.0367 47.6764 11.7908 48.2698 11.3443 48.7162Z" fill="#D8C596"/>
<path d="M49.0811 10.4559C50.2489 8.70403 50.0613 6.30885 48.5167 4.76424C47.6645 3.91242 46.5315 3.44287 45.3264 3.44287C44.1212 3.44287 42.9883 3.91242 42.136 4.76424C41.2838 5.61649 40.8146 6.74945 40.8146 7.95459C40.8146 9.15973 41.2838 10.2927 42.136 11.1449C42.9883 11.9972 44.1212 12.4663 45.3264 12.4663C46.0964 12.4663 46.8366 12.2741 47.4933 11.9133C50.9526 16.3482 52.8514 21.8565 52.8514 27.4999C52.8514 41.479 41.4789 52.8515 27.4998 52.8515C25.8171 52.8515 24.1345 52.6857 22.4992 52.3584C21.9176 52.2422 21.3516 52.6194 21.2349 53.201C21.1187 53.783 21.4959 54.3487 22.0775 54.4653C23.8512 54.8199 25.6757 54.9999 27.4998 54.9999C34.8452 54.9999 41.7512 52.1394 46.9452 46.9454C52.1393 41.7514 54.9998 34.8453 54.9998 27.4999C54.9998 21.3206 52.9013 15.2903 49.0811 10.4559ZM43.6554 9.62592C43.209 9.17945 42.9631 8.58611 42.9631 7.95459C42.9631 7.32349 43.209 6.73015 43.6554 6.28368C44.1015 5.8372 44.6953 5.59131 45.3264 5.59131C45.9575 5.59131 46.5512 5.8372 46.9977 6.28368C47.9188 7.20515 47.9188 8.70444 46.9977 9.62592C46.5512 10.072 45.9575 10.3179 45.3264 10.3179C44.6948 10.3179 44.1015 10.072 43.6554 9.62592Z" fill="#D8C596"/>
<path d="M23.0674 45.9766C23.0674 46.5699 23.5487 47.0508 24.1416 47.0508H30.8584C31.4517 47.0508 31.9326 46.5699 31.9326 45.9766V43.894C33.3451 43.5138 34.6954 42.9541 35.9643 42.2231L37.4346 43.6934C37.636 43.8948 37.9092 44.0081 38.1946 44.0081C38.4791 44.0081 38.7526 43.8948 38.9541 43.693L43.7016 38.9421C44.1208 38.5225 44.1208 37.8423 43.7016 37.4231L42.2329 35.9544C42.9639 34.6855 43.5237 33.3352 43.9039 31.9228H45.9784C46.5718 31.9228 47.0527 31.4419 47.0527 30.8485V24.1317C47.0527 23.5384 46.5718 23.0575 45.9784 23.0575H43.9034C43.5233 21.6455 42.9639 20.2952 42.2329 19.0263L43.6936 17.5656C43.8951 17.3642 44.0083 17.0906 44.0083 16.8056C44.0079 16.5207 43.8946 16.2471 43.6932 16.0457L38.9419 11.2982C38.5227 10.879 37.8425 10.879 37.4229 11.2986L35.9643 12.7576C34.6954 12.0266 33.3451 11.4669 31.9326 11.0867V9.02344C31.9326 8.4301 31.4517 7.94922 30.8584 7.94922H24.1416C23.5487 7.94922 23.0674 8.4301 23.0674 9.02344V11.0871C21.6554 11.4669 20.305 12.0266 19.0361 12.7576L17.5771 11.2986C17.1579 10.8794 16.4777 10.879 16.0581 11.2982L11.3072 16.0461C11.1054 16.2476 10.9921 16.5207 10.9921 16.8056C10.9921 17.0906 11.1054 17.3642 11.3068 17.5656L12.7675 19.0263C12.0365 20.2952 11.4767 21.6451 11.0966 23.0575H9.02575C8.43241 23.0575 7.95153 23.5384 7.95153 24.1313L7.94776 30.8481C7.94734 31.133 8.06063 31.4066 8.26205 31.608C8.46346 31.8095 8.73663 31.9228 9.02197 31.9228H11.0966C11.4767 33.3352 12.0365 34.6855 12.7675 35.9544L11.2988 37.4231C10.8796 37.8423 10.8792 38.5225 11.2988 38.9421L16.0464 43.693C16.2478 43.8944 16.5209 44.0081 16.8059 44.0081H16.8063C17.0912 44.0081 17.3644 43.8948 17.5658 43.6934L19.0357 42.2231C20.305 42.9541 21.6554 43.5138 23.0674 43.894V45.9766ZM19.457 39.9639C19.0319 39.689 18.4726 39.7486 18.1142 40.1065L16.8063 41.4145L13.5773 38.183L14.884 36.8759C15.242 36.518 15.3015 35.9586 15.0267 35.5336C14.0528 34.0263 13.3679 32.3743 12.992 30.6228C12.8854 30.1281 12.4481 29.7743 11.9417 29.7743H10.0966L10.0991 25.206H11.9417C12.4481 25.206 12.8854 24.8526 12.992 24.3575C13.3679 22.6064 14.0528 20.9544 15.0267 19.4471C15.3015 19.0221 15.242 18.4627 14.884 18.1048L13.5857 16.8061L16.8172 13.5771L18.1142 14.8746C18.4726 15.2325 19.0315 15.2917 19.457 15.0172C20.9638 14.0433 22.6159 13.3585 24.3674 12.9825C24.8621 12.8759 25.2158 12.4383 25.2158 11.9322V10.0977H29.7842V11.9318C29.7842 12.4383 30.1375 12.8759 30.6326 12.9821C32.3837 13.3585 34.0362 14.0429 35.543 15.0168C35.9681 15.2917 36.5274 15.2325 36.8854 14.8742L38.1828 13.5771L41.4143 16.8061L40.116 18.1044C39.7576 18.4627 39.6985 19.0221 39.9733 19.4471C40.9472 20.9544 41.6316 22.6064 42.008 24.3575C42.1142 24.8526 42.5519 25.206 43.0583 25.206H44.9042V29.7743H43.0583C42.5519 29.7743 42.1146 30.1281 42.008 30.6228C41.6321 32.3738 40.9472 34.0263 39.9733 35.5331C39.6985 35.9586 39.7581 36.518 40.116 36.8759L41.4227 38.1826L38.1937 41.4141L36.8858 40.1065C36.5274 39.7482 35.9681 39.689 35.543 39.9639C34.0357 40.9378 32.3837 41.6222 30.6326 41.9986C30.1375 42.1052 29.7842 42.5424 29.7842 43.0489V44.9023H25.2158V43.0489C25.2158 42.5428 24.8621 42.1052 24.3674 41.9986C22.6163 41.6226 20.9643 40.9378 19.457 39.9639Z" fill="#D8C596"/>
<path d="M36.3763 27.5002C36.3763 22.6058 32.3946 18.624 27.5002 18.624C22.6058 18.624 18.624 22.6058 18.624 27.5002C18.624 32.3946 22.6058 36.3763 27.5002 36.3763C32.3946 36.3763 36.3763 32.3946 36.3763 27.5002ZM20.7725 27.5002C20.7725 23.7903 23.7903 20.7725 27.5002 20.7725C31.21 20.7725 34.2279 23.7908 34.2279 27.5002C34.2279 31.2096 31.21 34.2279 27.5002 34.2279C23.7903 34.2279 20.7725 31.21 20.7725 27.5002Z" fill="#D8C596"/>
<path d="M37.3911 4.06278C37.6739 4.06278 37.9509 3.94781 38.1506 3.74807C38.3504 3.54707 38.4653 3.27013 38.4653 2.9873C38.4653 2.70616 38.3508 2.42879 38.1506 2.2278C37.9509 2.02806 37.6739 1.91309 37.3911 1.91309C37.1075 1.91309 36.8318 2.02806 36.632 2.2278C36.4319 2.42879 36.3169 2.7049 36.3169 2.9873C36.3169 3.27097 36.4319 3.54707 36.632 3.74807C36.8318 3.94781 37.1075 4.06278 37.3911 4.06278Z" fill="#D8C596"/>
<path d="M17.6558 50.9565C17.3734 50.9565 17.096 51.0715 16.8963 51.2713C16.6965 51.471 16.5815 51.7484 16.5815 52.0308C16.5815 52.3144 16.6965 52.5905 16.8963 52.7903C17.096 52.99 17.3734 53.105 17.6558 53.105C17.9382 53.105 18.2155 52.99 18.4153 52.7903C18.615 52.5905 18.73 52.3132 18.73 52.0308C18.73 51.7484 18.615 51.471 18.4153 51.2713C18.2155 51.0715 17.9382 50.9565 17.6558 50.9565Z" fill="#D8C596"/>
</g>
<defs>
<clipPath id="clip0_93_350">
<rect width="55" height="55" fill="white"/>
</clipPath>
</defs>
</svg>
