<svg width="70" height="70" viewBox="0 0 70 70" fill="none" xmlns="http://www.w3.org/2000/svg">
<path d="M16.3335 46.0835C12.473 46.0835 9.3335 49.223 9.3335 53.0835C9.3335 56.944 12.473 60.0835 16.3335 60.0835C20.194 60.0835 23.3335 56.944 23.3335 53.0835C23.3335 49.223 20.1939 46.0835 16.3335 46.0835ZM16.3335 57.7501C13.7598 57.7501 11.6669 55.6571 11.6669 53.0835C11.6669 50.5098 13.7599 48.4169 16.3335 48.4169C18.9071 48.4169 21.0001 50.5099 21.0001 53.0835C21.0001 55.6571 18.9071 57.7501 16.3335 57.7501Z" fill="#D8C596"/>
<path d="M56 46.0835C52.1395 46.0835 49 49.223 49 53.0835C49 56.944 52.1395 60.0835 56 60.0835C59.8605 60.0835 63 56.944 63 53.0835C63 49.223 59.8605 46.0835 56 46.0835ZM56 57.7501C53.4263 57.7501 51.3334 55.6571 51.3334 53.0835C51.3334 50.5098 53.4264 48.4169 56 48.4169C58.5737 48.4169 60.6666 50.5099 60.6666 53.0835C60.6666 55.6571 58.5737 57.7501 56 57.7501Z" fill="#D8C596"/>
<path d="M69.8146 39.6189L59.3146 23.2855C59.0999 22.9518 58.7301 22.75 58.3334 22.75H45.5001C44.8549 22.75 44.3335 23.2727 44.3335 23.9166V53.0832C44.3335 53.7284 44.8549 54.2499 45.5001 54.2499H50.1667V51.9165H46.6667V25.0834H57.6964L67.6667 40.593V51.9168H61.8334V54.25H68.8334C69.4785 54.25 70 53.7286 70 53.0834V40.25C70.0001 40.0271 69.936 39.8066 69.8146 39.6189Z" fill="#D8C596"/>
<path d="M51.3335 37.9165V29.7499H60.6669V27.4165H50.1669C49.5217 27.4165 49.0002 27.9392 49.0002 28.5831V39.0831C49.0002 39.7283 49.5217 40.2497 50.1669 40.2497H67.6669V37.9164H51.3335V37.9165Z" fill="#D8C596"/>
<path d="M45.5 14.5835H1.16662C0.522676 14.5835 0 15.1062 0 15.7501V53.0835C0 53.7287 0.522676 54.2501 1.16662 54.2501H10.5V51.9167H2.33338V16.9167H44.3334V51.9167H22.1666V54.2501H45.5C46.1452 54.2501 46.6666 53.7287 46.6666 53.0835V15.7501C46.6666 15.1062 46.1452 14.5835 45.5 14.5835Z" fill="#D8C596"/>
<path d="M8.1665 47.25H1.1665V49.5834H8.1665V47.25Z" fill="#D8C596"/>
<path d="M44.3334 47.25H24.5V49.5834H44.3334V47.25Z" fill="#D8C596"/>
<path d="M68.8331 47.25H64.1665V49.5834H68.8331V47.25Z" fill="#D8C596"/>
<path d="M45.4999 19.25H4.6665V21.5834H45.4999V19.25Z" fill="#D8C596"/>
<path d="M17.4999 51.9165H15.1665V54.2499H17.4999V51.9165Z" fill="#D8C596"/>
<path d="M57.1669 51.9165H54.8335V54.2499H57.1669V51.9165Z" fill="#D8C596"/>
<path d="M20.9999 9.9165H4.6665V12.2499H20.9999V9.9165Z" fill="#D8C596"/>
<path d="M2.33338 9.9165H0V12.2499H2.33338V9.9165Z" fill="#D8C596"/>
</svg>
