<svg width="58" height="58" viewBox="0 0 58 58" fill="none" xmlns="http://www.w3.org/2000/svg">
<g clip-path="url(#clip0_93_166)">
<path d="M45.1148 30.3328L51.8265 27.4791C52.4487 27.2136 52.7377 26.4939 52.4721 25.8719C52.3666 25.6248 52.1827 25.4192 51.949 25.2868L48.6176 23.3762L51.8877 21.9922C52.5099 21.7267 52.799 21.007 52.5333 20.385C52.4278 20.1379 52.244 19.9323 52.0102 19.7999L48.6176 17.8893L51.8877 16.5053C52.5099 16.2398 52.799 15.5201 52.5333 14.8981C52.4278 14.651 52.244 14.4454 52.0102 14.313L48.6176 12.4024L51.8877 11.0184C52.5099 10.7529 52.799 10.0332 52.5333 9.41121C52.4278 9.16411 52.244 8.95851 52.0102 8.82608L36.5415 0.154812C36.2144 -0.0273705 35.8218 -0.0500285 35.476 0.0935741L24.0245 4.78439C23.886 4.7899 23.7493 4.81883 23.6204 4.87012L16.627 7.80954L2.26061 13.7006C1.63032 13.9463 1.31862 14.6564 1.56433 15.2865C1.66308 15.5399 1.84342 15.7533 2.07689 15.8929L5.44497 17.877L2.26061 19.1998C1.63307 19.4522 1.32887 20.1655 1.58133 20.793C1.67931 21.0367 1.85307 21.2423 2.07689 21.3798L5.44497 23.3639L2.23611 24.6867C1.60904 24.9403 1.30652 25.6544 1.5602 26.2815C1.6617 26.5322 1.84342 26.7423 2.07689 26.879L5.44497 28.8631L2.26061 30.2226C1.64119 30.4942 1.35903 31.2166 1.63062 31.836C1.72523 32.0519 1.88017 32.2359 2.07674 32.3659L5.82449 34.5704V51.717C5.82449 55.7955 12.8668 58 19.4928 58C23.9631 58 28.605 56.9957 31.1647 55.0851C33.6142 56.8733 37.9498 58 42.8611 58C49.4871 58 56.5294 55.7955 56.5294 51.717V36.5301C56.5418 32.9048 50.9937 30.7737 45.1148 30.3328ZM39.5422 30.0511V27.2219L45.7395 24.5887L48.6176 26.2054L39.5422 30.0511ZM39.5422 24.5642V21.735L45.7395 19.1018L48.6176 20.7185L39.5422 24.5642ZM39.5422 19.0773V16.2359L45.7395 13.6026L48.6176 15.2316L39.5422 19.0773ZM35.8679 2.57983L48.6176 9.7324L38.3909 14.0558L26.7802 6.30309L35.8679 2.57983ZM16.8842 10.357L28.6296 18.1955L18.3049 22.5801L5.46947 15.0356L16.8842 10.357ZM8.12719 19.4325L17.5946 25.0051C17.9295 25.2034 18.3386 25.2306 18.6968 25.0786L29.9768 20.2898V23.119L24.2205 25.5685C20.8989 25.0357 17.511 25.0731 14.202 25.6787L5.46947 20.5225L8.12719 19.4325ZM29.9646 25.7767V27.3321C29.3836 27.0289 28.7819 26.7669 28.1642 26.5483L29.9646 25.7767ZM5.84914 31.4473V31.7045L5.46947 31.4841L5.86139 31.3248L5.84914 31.4473ZM5.46947 25.9972L8.12719 24.9071L10.8706 26.5483C10.013 26.8684 9.19181 27.2789 8.42113 27.7731L5.46947 25.9972ZM30.7239 51.717C30.7239 53.2847 26.3516 55.5505 19.5052 55.5505C12.6588 55.5505 8.28641 53.2847 8.28641 51.717V50.3453C10.9196 52.0477 15.292 52.9418 19.5052 52.9418C23.7183 52.9418 28.0785 52.0477 30.7239 50.3453V51.717ZM30.7239 46.6588C30.7239 48.2265 26.3516 50.4923 19.5052 50.4923C12.6588 50.4923 8.28641 48.2265 8.28641 46.6588V45.2871C10.9196 46.9895 15.292 47.8835 19.5052 47.8835C23.7183 47.8835 28.0785 46.9895 30.7239 45.2871V46.6588ZM30.7239 41.6005C30.7239 43.1682 26.3516 45.434 19.5052 45.434C12.6588 45.434 8.28641 43.1682 8.28641 41.6005V40.2288C10.9196 41.9312 15.292 42.8253 19.5052 42.8253C23.7183 42.8253 28.0785 41.9312 30.7239 40.2288V41.6005ZM30.7239 36.5423C30.7239 38.11 26.3516 40.3758 19.5052 40.3758C12.6588 40.3758 8.28641 38.0977 8.28641 36.5423V35.1216C10.9196 36.824 15.292 37.7181 19.5052 37.7181C23.7183 37.7181 28.0785 36.824 30.7239 35.1216V36.5423ZM19.5174 35.3053L19.5052 35.3175C12.6588 35.3175 8.28641 33.0395 8.28641 31.4841C8.28641 29.9286 12.6588 27.6506 19.5052 27.6506C26.3516 27.6506 30.7362 29.9041 30.7362 31.4473C30.7362 32.9905 26.3638 35.3053 19.5174 35.3053ZM31.8752 17.4239L19.6276 9.2425L24.049 7.42986L37.0682 16.1134V30.8104C35.7332 31.0756 34.4313 31.4864 33.1857 32.0352V31.4473C33.1761 30.6612 32.9094 29.8998 32.4264 29.2795V18.4404C32.4242 18.0307 32.2174 17.6492 31.8752 17.4239ZM54.0923 51.717C54.0923 53.2847 49.7199 55.5505 42.8735 55.5505C38.0725 55.5505 34.5207 54.436 32.806 53.2357C33.0429 52.7642 33.1686 52.2447 33.1735 51.717V51.1781C36.2539 52.4174 39.554 53.0174 42.8735 52.9418C47.0867 52.9418 51.4468 52.0477 54.0923 50.3453V51.717ZM54.0923 46.6588C54.0923 48.2265 49.7199 50.4923 42.8735 50.4923C39.5172 50.617 36.1828 49.9015 33.1735 48.4102V46.1444C36.2539 47.3837 39.554 47.9837 42.8735 47.908C47.0867 47.908 51.4468 47.014 54.0923 45.3116V46.6588ZM54.0923 41.6005C54.0923 43.1682 49.7199 45.434 42.8735 45.434C39.5172 45.5594 36.1827 44.8437 33.1735 43.3519V41.0494C36.2539 42.2887 39.554 42.8887 42.8735 42.8131C47.0867 42.8131 51.4468 41.919 54.0923 40.2166V41.6005ZM42.8735 40.3758C39.5172 40.5012 36.1827 39.7855 33.1735 38.2937V34.7787C36.1808 33.2794 39.5152 32.5554 42.8735 32.6721C49.7199 32.6721 54.0923 34.9501 54.0923 36.5056C54.0923 38.061 49.7322 40.3758 42.8735 40.3758Z" fill="#D8C596"/>
</g>
<defs>
<clipPath id="clip0_93_166">
<rect width="58" height="58" fill="white"/>
</clipPath>
</defs>
</svg>
