<svg width="64" height="64" viewBox="0 0 64 64" fill="none" xmlns="http://www.w3.org/2000/svg">
<g clip-path="url(#clip0_93_185)">
<path d="M63.9946 16.3244C63.9381 15.689 63.3886 15.1844 62.7499 15.1844H55.335V5.58111C55.335 4.90133 54.7647 4.33105 54.0849 4.33105H34.5844C34.2528 4.33105 33.9348 4.46281 33.7004 4.6972L0.363394 38.0342C0.0815071 38.3163 -0.0417481 38.71 0.0125042 39.0932V58.4185C0.0125042 59.1089 0.572153 59.6686 1.26256 59.6686L40.27 59.6689C40.6186 59.6689 40.9336 59.5259 41.1603 59.2958L49.4219 51.0082C49.9093 50.5192 49.908 49.7278 49.4191 49.2404C48.9301 48.753 48.1386 48.7541 47.6513 49.2431L41.52 55.3937V49.1139L54.9478 35.686C55.436 35.1979 55.436 34.4063 54.9478 33.9181C54.4597 33.4299 53.6682 33.4299 53.1799 33.9181L41.52 45.5779V39.4327L61.4999 19.4525V35.3509L55.4925 41.3771C55.0051 41.8662 55.0064 42.6576 55.4952 43.145C55.9841 43.6324 56.7757 43.6311 57.2631 43.1422L63.6352 36.7501C63.8689 36.5157 64 36.1983 64 35.8675V16.4346C64 16.3974 63.9979 16.3608 63.9946 16.3244ZM2.51311 50.4097V44.9898C8.95326 45.5848 14.0965 50.7279 14.6914 57.1681H9.31053C8.76863 53.6864 6.00113 50.9321 2.51311 50.4097ZM6.76642 57.1682H2.55874V52.9605C4.64395 53.4379 6.28902 55.083 6.76642 57.1682ZM2.51261 42.4809V40.168L19.5017 40.1647V57.1683H17.2004C16.5926 49.348 10.3329 43.0885 2.51261 42.4809ZM22.0018 57.1682V47.166C27.2753 47.7422 31.4752 51.9208 32.0571 57.1682H22.0018ZM39.0199 57.1683H34.5687C33.9695 50.5417 28.655 45.2493 22.0018 44.6547V40.1646L25.6242 40.1647C30.9164 40.1712 39.0199 47.3374 39.0199 53.5324V57.1683ZM39.0199 46.2549C37.4114 43.852 35.1816 41.7094 32.797 40.1648L39.0199 40.165V46.2549ZM39.7522 37.6644H23.7713L43.7669 17.6844H49.1882L41.2439 25.6287C40.7557 26.1169 40.7557 26.9084 41.2439 27.3967C41.7254 27.8782 42.5302 27.8782 43.0118 27.3967L52.724 17.6845H59.7321L39.7522 37.6644ZM52.2067 15.1843C52.2064 15.1843 52.2059 15.1843 52.2055 15.1843H46.2639L52.835 8.60249V15.1843H52.2067ZM35.1023 6.83116H51.0672L20.2339 37.6645L14.0326 37.6646L35.6241 16.0731C36.1123 15.5849 36.1123 14.7934 35.6241 14.3051C35.1361 13.817 34.3445 13.8171 33.8563 14.3051L10.4968 37.6647L4.26869 37.6649L35.1023 6.83116Z" fill="#D8C596"/>
<path d="M53.6319 45.6928C53.3699 45.064 52.6312 44.7561 52.0006 45.0166C51.3721 45.2761 51.0622 46.0208 51.3244 46.6491C51.5867 47.278 52.326 47.5866 52.9569 47.3254C53.5851 47.0651 53.8937 46.3209 53.6319 45.6928Z" fill="#D8C596"/>
</g>
<defs>
<clipPath id="clip0_93_185">
<rect width="64" height="64" fill="white"/>
</clipPath>
</defs>
</svg>
