<svg width="65" height="65" viewBox="0 0 65 65" fill="none" xmlns="http://www.w3.org/2000/svg">
<path d="M21.9058 49.7533C21.8893 49.672 21.8651 49.592 21.8334 49.5146C21.8017 49.4384 21.7623 49.3648 21.7166 49.2962C21.6709 49.2264 21.6176 49.1617 21.5592 49.1033C21.5008 49.0449 21.436 48.9916 21.3662 48.9458C21.2977 48.9001 21.224 48.8608 21.1466 48.8291C21.0704 48.7973 20.9904 48.7719 20.9092 48.7567C20.7454 48.7237 20.5766 48.7237 20.4141 48.7567C20.3328 48.7719 20.2528 48.7973 20.1754 48.8291C20.0992 48.8608 20.0256 48.9001 19.957 48.9458C19.8872 48.9916 19.8225 49.0449 19.7641 49.1033C19.7057 49.1617 19.6523 49.2264 19.6066 49.2962C19.5597 49.3648 19.5216 49.4384 19.4898 49.5146C19.4581 49.592 19.4327 49.672 19.4175 49.7533C19.401 49.8345 19.3921 49.9183 19.3921 50.0008C19.3921 50.0833 19.401 50.1671 19.4175 50.2484C19.4327 50.3296 19.4581 50.4096 19.4898 50.4858C19.5216 50.5632 19.5597 50.6369 19.6066 50.7054C19.6523 50.7752 19.7057 50.84 19.7641 50.8984C19.8225 50.9568 19.8872 51.0101 19.957 51.0558C20.0256 51.1016 20.0992 51.141 20.1754 51.1727C20.2528 51.2045 20.3328 51.2299 20.4141 51.2451C20.4953 51.2616 20.5791 51.2705 20.6616 51.2705C20.7441 51.2705 20.8279 51.2616 20.9092 51.2451C20.9904 51.2299 21.0704 51.2045 21.1466 51.1727C21.224 51.141 21.2977 51.1015 21.3662 51.0558C21.436 51.0101 21.5008 50.9568 21.5592 50.8984C21.6176 50.84 21.6709 50.7752 21.7166 50.7054C21.7623 50.6369 21.8017 50.5632 21.8334 50.4858C21.8651 50.4096 21.8893 50.3296 21.9058 50.2484C21.9223 50.1671 21.9312 50.0833 21.9312 50.0008C21.9312 49.9183 21.9223 49.8345 21.9058 49.7533Z" fill="#D8C596"/>
<path d="M58.3975 50.1443C58.3926 50.1316 58.3875 50.1191 58.3822 50.1066C57.2137 47.3724 54.4733 46.3619 51.2302 47.4696L42.3856 49.9154C41.8742 48.3669 40.5987 47.0491 38.7952 46.3798C38.7841 46.3757 38.7729 46.3717 38.7616 46.3679L29.0394 43.0681C28.2302 42.0221 25.6954 39.3457 20.9496 39.3457C17.6329 39.3457 14.6989 41.621 13.0203 44.101H1.26953C0.568369 44.101 0 44.6694 0 45.3705V61.3764C0 62.0775 0.568369 62.6459 1.26953 62.6459H8.81778C9.51895 62.6459 10.0873 62.0775 10.0873 61.3764V60.2803H13.6271C14.3283 60.2803 14.8967 59.7119 14.8967 59.0107V58.6454C16.9602 58.8254 17.6389 59.2168 19.534 60.3096C20.9914 61.15 23.1942 62.4202 27.161 64.2038C27.1794 64.212 27.1981 64.2199 27.2167 64.2272C27.9781 64.5267 29.4663 64.9972 31.3012 64.9972C32.5783 64.9972 34.0237 64.7691 35.5073 64.0966L55.0569 57.0969C55.0917 57.0845 55.126 57.0705 55.1595 57.055C57.0279 56.1954 59.8121 53.7728 58.3975 50.1443ZM7.54825 60.1067H2.53906V46.6399H7.54825V60.1067ZM12.3576 57.7411H10.0873V46.6399H12.3576V57.7411ZM54.145 54.7263L34.6041 61.7228C34.587 61.7289 34.5637 61.7381 34.5469 61.7449C34.5297 61.7519 34.5126 61.7593 34.4957 61.767C31.7742 63.0178 29.1873 62.269 28.1734 61.8748C24.3417 60.1507 22.2966 58.9714 20.8024 58.1098C18.725 56.9118 17.7239 56.3344 14.8967 56.101V45.8759C16.1001 43.9036 18.4337 41.8846 20.9497 41.8846C25.2643 41.8846 27.0926 44.6909 27.1644 44.8042C27.3194 45.0563 27.5577 45.2464 27.8379 45.3414L37.9275 48.7659C39.5389 49.3707 40.3905 50.7507 39.9991 52.1268C39.8185 52.7624 39.401 53.2895 38.8239 53.611C38.2517 53.9298 37.5903 54.0087 36.9599 53.8342L25.5858 50.2298C24.917 50.0179 24.2037 50.3881 23.992 51.0565C23.7801 51.7249 24.1503 52.4384 24.8187 52.6503L36.2126 56.2609C36.2247 56.2647 36.2367 56.2684 36.2489 56.2719C36.7038 56.4012 37.1669 56.4652 37.6273 56.4652C38.47 56.4652 39.3034 56.2505 40.0598 55.829C41.2294 55.1774 42.0752 54.1092 42.4413 52.8213C42.4705 52.7184 42.4964 52.6156 42.5189 52.5128L52.0509 49.8722C53.4276 49.4019 55.2348 49.2324 56.0394 51.0856C56.8722 53.2612 54.7077 54.458 54.145 54.7263Z" fill="#D8C596"/>
<path d="M45.5838 16.6996C45.5673 16.6183 45.5432 16.5383 45.5102 16.4609C45.4784 16.3847 45.4403 16.3111 45.3934 16.2425C45.3477 16.1727 45.2943 16.108 45.2359 16.0496C45.1775 15.9912 45.1128 15.9378 45.043 15.8921C44.9744 15.8464 44.9008 15.8071 44.8246 15.7753C44.7472 15.7436 44.6672 15.7182 44.5872 15.703C44.4234 15.67 44.2546 15.67 44.0908 15.703C44.0096 15.7182 43.9296 15.7436 43.8534 15.7753C43.776 15.8071 43.7023 15.8464 43.6338 15.8921C43.564 15.9378 43.4992 15.9912 43.4408 16.0496C43.3824 16.108 43.3291 16.1727 43.2834 16.2425C43.2377 16.3111 43.1983 16.3847 43.1666 16.4609C43.1349 16.5383 43.1095 16.6183 43.0942 16.6996C43.0777 16.7808 43.0688 16.8646 43.0688 16.9471C43.0688 17.0296 43.0777 17.1134 43.0942 17.1947C43.1095 17.2759 43.1349 17.3559 43.1666 17.4321C43.1983 17.5095 43.2377 17.5832 43.2834 17.6517C43.3291 17.7215 43.3824 17.7863 43.4408 17.8447C43.4992 17.9031 43.564 17.9564 43.6338 18.0021C43.7023 18.0478 43.776 18.0872 43.8534 18.1189C43.9296 18.1506 44.0096 18.1748 44.0908 18.1913C44.1721 18.2078 44.2559 18.2167 44.3384 18.2167C44.4209 18.2167 44.5047 18.2078 44.5872 18.1913C44.6672 18.1748 44.7472 18.1506 44.8246 18.1189C44.9008 18.0872 44.9744 18.0478 45.043 18.0021C45.1128 17.9564 45.1775 17.9031 45.2359 17.8447C45.2943 17.7863 45.3477 17.7215 45.3934 17.6517C45.4403 17.5832 45.4784 17.5095 45.5102 17.4321C45.5432 17.3559 45.5673 17.2759 45.5838 17.1947C45.6003 17.1134 45.6079 17.0296 45.6079 16.9471C45.6079 16.8646 45.6003 16.7808 45.5838 16.6996Z" fill="#D8C596"/>
<path d="M63.7307 4.30255H56.1824C55.4812 4.30255 54.9129 4.87091 54.9129 5.57208V6.66819H51.373C50.6719 6.66819 50.1035 7.23656 50.1035 7.93772V8.30309C48.04 8.12295 47.3613 7.73168 45.4663 6.63886C44.0089 5.79843 41.8061 4.52827 37.8392 2.7447C37.8208 2.73633 37.8023 2.72858 37.7833 2.72122C36.4921 2.21315 33.1079 1.21352 29.4934 2.8516L24.3848 4.68074L20.0787 0.374744C19.583 -0.121008 18.7791 -0.121008 18.2834 0.374744L4.14611 14.5119C3.68882 14.9693 3.6011 15.7623 4.14611 16.3074L28.3036 40.4649C28.6902 40.8516 29.5954 40.9685 30.0991 40.4649L43.0058 27.5583C43.3414 27.5873 43.6896 27.6029 44.0505 27.6029C47.3673 27.6029 50.3012 25.3276 51.9796 22.8477H63.7307C64.4318 22.8477 65.0002 22.2794 65.0002 21.5782V5.57208C65.0002 4.87091 64.4318 4.30255 63.7307 4.30255ZM19.1809 3.0678L22.0744 5.96132C21.2143 6.49325 20.2199 6.77788 19.1809 6.77788C18.1418 6.77788 17.1475 6.49338 16.2874 5.96132L19.1809 3.0678ZM9.73281 18.3032L6.83929 15.4095L9.73281 12.516C10.2647 13.3761 10.5494 14.3706 10.5494 15.4095C10.5494 16.4485 10.2649 17.443 9.73281 18.3032ZM29.2014 37.7717L26.3084 34.8787C28.0747 33.7887 30.3279 33.7887 32.0943 34.8787L29.2014 37.7717ZM33.9235 33.0498C31.1181 31.0147 27.2848 31.0147 24.4794 33.0498L11.5618 20.1321C12.5532 18.7686 13.0884 17.1308 13.0884 15.4095C13.0884 13.6882 12.5533 12.0505 11.5618 10.687L14.4585 7.79046C15.822 8.78183 17.4597 9.31707 19.181 9.31707C20.9024 9.31707 22.5401 8.78183 23.9036 7.79046L26.6494 10.5363C26.0569 10.6238 25.4792 10.819 24.9404 11.1193C24.0304 11.6263 23.3164 12.3857 22.8718 13.3043C21.4398 13.5695 20.114 14.2628 19.074 15.3027C16.2525 18.1243 16.2525 22.7153 19.0741 25.537C20.4848 26.9477 22.338 27.6532 24.1912 27.6532C26.0444 27.6532 27.8976 26.9478 29.3085 25.537C30.2263 24.6191 30.8694 23.491 31.1914 22.2616L35.4779 23.7163C34.9953 25.9517 35.4896 28.3034 36.8227 30.1506L33.9235 33.0498ZM26.205 20.5687C26.2161 20.5727 26.2273 20.5768 26.2386 20.5806L28.7772 21.4422C28.5855 22.3074 28.1517 23.1029 27.5131 23.7416C25.6814 25.573 22.7011 25.5733 20.8696 23.7416C19.038 21.9101 19.038 18.9298 20.8696 17.0981C21.3114 16.6561 21.8328 16.3107 22.4009 16.0764C22.6353 18.0267 24.0395 19.7651 26.205 20.5687ZM38.652 28.3212C38.1619 27.5226 37.8847 26.6113 37.8409 25.6811C38.449 26.1207 39.1922 26.5515 40.0798 26.8933L38.652 28.3212ZM50.1034 21.072C48.9001 23.0446 46.5665 25.0636 44.0505 25.0636C43.5798 25.0636 43.1386 25.0301 42.7261 24.9704C42.7245 24.9701 42.7228 24.9699 42.7212 24.9696C39.9795 24.5714 38.5047 23.0131 38.0186 22.3962C37.9927 22.3581 37.8824 22.2137 37.866 22.1897C37.7181 21.9254 37.4756 21.7129 37.1664 21.6079L27.0726 18.1821C25.4618 17.5775 24.6103 16.1982 25.0006 14.8225C25.0008 14.8216 25.0011 14.8207 25.0013 14.8198C25.0017 14.8188 25.002 14.8177 25.0022 14.8167C25.1836 14.1832 25.6003 13.6577 26.1762 13.3369C26.7482 13.0181 27.4095 12.939 28.0402 13.1139L39.4143 16.7182C40.0829 16.9303 40.7963 16.5599 41.0081 15.8915C41.2198 15.2231 40.8498 14.5096 40.1814 14.2977L31.1353 11.4311L31.0564 11.3521C31.0556 11.3514 31.0548 11.3505 31.0539 11.3497L26.3706 6.66641L30.3961 5.22499C30.4097 5.22004 30.4264 5.21382 30.4399 5.20836C30.4433 5.20696 30.4499 5.20442 30.4532 5.20302C30.4705 5.19604 30.4875 5.18868 30.5044 5.18093C33.2257 3.93019 35.8125 4.67883 36.8265 5.07315C40.6583 6.7973 42.7035 7.97657 44.1978 8.8382C46.2752 10.0363 47.2763 10.6135 50.1034 10.847V21.072ZM54.9129 20.3084H52.6426V9.20725H54.9129V20.3084ZM62.4611 20.3084H57.4519V6.84161H62.4611V20.3084Z" fill="#D8C596"/>
</svg>
