<svg  class="main-svg-sprite main-svg-sprite--icons" xmlns="http://www.w3.org/2000/svg" xmlns:xlink="http://www.w3.org/1999/xlink"><symbol viewBox="0 0 25 8" id="arrow-go-to-icon" xmlns="http://www.w3.org/2000/svg"><path d="M24.354 4.354a.5.5 0 000-.708L21.172.464a.5.5 0 10-.707.708L23.293 4l-2.828 2.828a.5.5 0 10.707.708l3.182-3.182zM0 4.5h24v-1H0v1z"/></symbol><symbol viewBox="0 0 16 16" id="close-Icon" xmlns="http://www.w3.org/2000/svg"><path clip-rule="evenodd" d="M9.616 8l6.049-6.049A1.142 1.142 0 1014.049.335L8 6.385 1.951.334A1.142 1.142 0 10.335 1.951l6.05 6.05-6.05 6.048a1.141 1.141 0 101.616 1.616L8 9.616l6.049 6.05a1.14 1.14 0 001.616 0 1.142 1.142 0 000-1.617L9.615 8z"/></symbol><symbol viewBox="0 0 19 25" id="local-icon" xmlns="http://www.w3.org/2000/svg"><path d="M9.5 0C4.424 0 .295 4.129.295 9.204c0 1.324.27 2.588.805 3.757 2.3 5.035 6.713 10.352 8.01 11.86a.512.512 0 00.777 0c1.297-1.508 5.709-6.824 8.01-11.86a8.974 8.974 0 00.806-3.757C18.704 4.129 14.574 0 9.499 0zm0 13.985a4.786 4.786 0 01-4.781-4.781 4.786 4.786 0 014.78-4.781 4.786 4.786 0 014.781 4.78 4.786 4.786 0 01-4.78 4.782z"/></symbol><symbol viewBox="0 0 19 19" id="phone-icon" xmlns="http://www.w3.org/2000/svg"><g clip-path="url(#dclip0_309_1120)"><path d="M18.483 13.944l-2.652-2.651c-.947-.947-2.556-.569-2.935.663-.284.852-1.231 1.325-2.084 1.136-1.893-.474-4.45-2.936-4.924-4.924-.284-.853.284-1.8 1.137-2.084 1.23-.379 1.61-1.988.662-2.935L5.036.497c-.758-.663-1.894-.663-2.557 0l-1.8 1.8C-1.118 4.19.87 9.208 5.32 13.66c4.45 4.45 9.47 6.534 11.364 4.64l1.799-1.8c.663-.757.663-1.893 0-2.556z"/></g><defs><clipPath id="dclip0_309_1120"><path d="M0 0h19v19H0z"/></clipPath></defs></symbol><symbol viewBox="0 0 36 36" id="play-icon" xmlns="http://www.w3.org/2000/svg"><path d="M18 0C8.059 0 0 8.059 0 18s8.059 18 18 18 18-8.059 18-18C35.99 8.063 27.937.01 18 0zm0 33.428C9.479 33.428 2.571 26.521 2.571 18S9.48 2.571 18 2.571c8.52 0 15.428 6.908 15.428 15.429-.009 8.517-6.91 15.42-15.428 15.428z"/><path d="M25.58 17.426a1.286 1.286 0 00-.576-.577l-10.286-5.143a1.286 1.286 0 00-1.86 1.15v10.287a1.286 1.286 0 001.86 1.15l10.286-5.142a1.286 1.286 0 00.577-1.725zM15.43 21.062v-6.125L21.554 18l-6.125 3.062z"/></symbol><symbol viewBox="0 0 23 23" id="user-icon" xmlns="http://www.w3.org/2000/svg"><path d="M19.632 14.868a11.457 11.457 0 00-4.37-2.74 6.646 6.646 0 002.886-5.48A6.656 6.656 0 0011.5 0a6.656 6.656 0 00-6.648 6.648 6.646 6.646 0 002.886 5.48 11.456 11.456 0 00-4.37 2.74A11.425 11.425 0 000 23h1.797c0-5.35 4.353-9.703 9.703-9.703S21.203 17.65 21.203 23H23c0-3.072-1.196-5.96-3.368-8.132zM11.5 11.5a4.857 4.857 0 01-4.852-4.852A4.857 4.857 0 0111.5 1.797a4.857 4.857 0 014.852 4.851A4.857 4.857 0 0111.5 11.5z"/></symbol></svg>