<svg width="17" height="17" viewBox="0 0 17 17" fill="none" xmlns="http://www.w3.org/2000/svg">
<g opacity="0.4" clip-path="url(#clip0_146_294)">
<path d="M15.2112 4.47308C14.8591 4.64342 14.7118 5.06711 14.8821 5.41903C15.3475 6.38036 15.5833 7.41657 15.5833 8.5C15.5833 12.4057 12.4057 15.5833 8.5 15.5833C4.59431 15.5833 1.41667 12.4057 1.41667 8.5C1.41667 4.59431 4.59431 1.41667 8.5 1.41667C10.1185 1.41667 11.6389 1.94515 12.8973 2.94488C13.2026 3.18854 13.6489 3.13752 13.8926 2.83126C14.1362 2.52517 14.0852 2.07935 13.7788 1.83603C12.289 0.651957 10.4142 0 8.5 0C3.81334 0 0 3.81334 0 8.5C0 13.1867 3.81334 17 8.5 17C13.1867 17 17 13.1867 17 8.5C17 7.20127 16.7164 5.95668 16.1571 4.80217C15.9871 4.44939 15.5621 4.3024 15.2112 4.47308Z" fill="white"/>
<path d="M8.5013 2.8335C8.1103 2.8335 7.79297 3.15083 7.79297 3.54183V8.50016C7.79297 8.89116 8.1103 9.2085 8.5013 9.2085H12.043C12.434 9.2085 12.7513 8.89116 12.7513 8.50016C12.7513 8.10916 12.434 7.79183 12.043 7.79183H9.20964V3.54183C9.20964 3.15083 8.8923 2.8335 8.5013 2.8335Z" fill="white"/>
</g>
<defs>
<clipPath id="clip0_146_294">
<rect width="17" height="17" fill="white"/>
</clipPath>
</defs>
</svg>
