<svg width="16" height="16" viewBox="0 0 16 16" fill="none" xmlns="http://www.w3.org/2000/svg">
<path fill-rule="evenodd" clip-rule="evenodd" d="M9.61594 8.00014L15.6649 1.95111C16.1117 1.50426 16.1117 0.781986 15.6649 0.335137C15.218 -0.111712 14.4958 -0.111712 14.0489 0.335137L8 6.38417L1.95107 0.335137C1.50423 -0.111712 0.781972 -0.111712 0.335131 0.335137C-0.11171 0.781986 -0.11171 1.50426 0.335131 1.95111L6.38406 8.00014L0.335131 14.0492C-0.11171 14.496 -0.11171 15.2183 0.335131 15.6651C0.55798 15.888 0.850541 16 1.1431 16C1.43566 16 1.72822 15.888 1.95107 15.6651L8 9.61611L14.0489 15.6651C14.2718 15.888 14.5643 16 14.8569 16C15.1495 16 15.442 15.888 15.6649 15.6651C16.1117 15.2183 16.1117 14.496 15.6649 14.0492L9.61594 8.00014Z" fill="#888E92"/>
</svg>
