<svg width="19" height="25" viewBox="0 0 19 25" fill="none" xmlns="http://www.w3.org/2000/svg">
<path d="M9.49938 0C4.42483 0 0.295898 4.12893 0.295898 9.204C0.295898 10.5278 0.566845 11.7917 1.10081 12.9609C3.40193 17.9963 7.81383 23.3127 9.11151 24.8219C9.20873 24.9348 9.35048 24.9997 9.49964 24.9997C9.6488 24.9997 9.79054 24.9348 9.88776 24.8219C11.1849 23.3129 15.5968 17.9968 17.8987 12.9609C18.4329 11.7917 18.7036 10.5278 18.7036 9.204C18.7031 4.12893 14.5742 0 9.49938 0ZM9.49938 13.9846C6.86335 13.9846 4.71854 11.8398 4.71854 9.20374C4.71854 6.56745 6.86335 4.42265 9.49938 4.42265C12.1354 4.42265 14.2802 6.56745 14.2802 9.20374C14.2805 11.8398 12.1357 13.9846 9.49938 13.9846Z" fill="#A49777"/>
</svg>
