<svg width="17" height="17" viewBox="0 0 17 17" fill="none" xmlns="http://www.w3.org/2000/svg">
<g opacity="0.4">
<path d="M7.66785 8.41267C8.11175 8.70861 8.89063 8.70865 9.33463 8.41264C9.33469 8.4126 9.33479 8.41254 9.33486 8.4125L16.9007 3.36855C16.6526 2.65083 15.9705 2.13379 15.1695 2.13379H1.83289C1.03185 2.13379 0.349758 2.65083 0.101562 3.36855L7.66762 8.41254C7.66772 8.4126 7.66778 8.4126 7.66785 8.41267Z" fill="white"/>
<path d="M9.88617 9.24159C9.88607 9.24166 9.886 9.24173 9.88594 9.24176C9.49739 9.50078 8.99861 9.63031 8.5 9.63031C8.00128 9.63031 7.5027 9.50081 7.11412 9.24173C7.11405 9.24169 7.11402 9.24166 7.11395 9.24163L0 4.49902V13.0347C0 14.0446 0.821684 14.8663 1.8317 14.8663H15.1684C16.1783 14.8663 17 14.0446 17 13.0347V4.49902L9.88617 9.24159Z" fill="white"/>
</g>
</svg>
