<svg width="36" height="36" viewBox="0 0 36 36" fill="none" xmlns="http://www.w3.org/2000/svg">
<path d="M18 0C8.05886 0 0 8.05886 0 18C0 27.9411 8.05886 35.9999 18 35.9999C27.9411 35.9999 35.9999 27.9411 35.9999 18C35.9894 8.06331 27.9367 0.0106222 18 0ZM18 33.4285C9.479 33.4285 2.5714 26.5209 2.5714 18C2.5714 9.479 9.479 2.5714 18 2.5714C26.5209 2.5714 33.4285 9.479 33.4285 18C33.4193 26.5172 26.5172 33.4193 18 33.4285Z" fill="#A49777"/>
<path d="M25.5808 17.4263C25.4562 17.1763 25.2536 16.9737 25.0036 16.8491L14.7179 11.7062C14.0827 11.3888 13.3105 11.6464 12.993 12.2816C12.9038 12.4602 12.8573 12.6572 12.8574 12.8569V23.1427C12.8571 23.8528 13.4325 24.4286 14.1426 24.429C14.3423 24.4291 14.5393 24.3827 14.7179 24.2934L25.0036 19.1505C25.6391 18.8338 25.8976 18.0618 25.5808 17.4263ZM15.4289 21.0624V14.9372L21.5541 17.9998L15.4289 21.0624Z" fill="#A49777"/>
</svg>
